<svg version="1.2" xmlns="http://www.w3.org/2000/svg" viewBox="0 0 262 262" width="262" height="262">
	<title>logo</title>
	<style>
		.s0 { fill: #1d1d1b } 
		.s1 { fill: #9d9d9c } 
	</style>
	<g>
		<path class="s0" d="m168.5 178.6c-8-1.1-16.3-0.3-24 2.4q1.6 0.8 3.1 1.6c5 1.5 10.6 0.9 15.4-1 2-0.8 3.8-1.8 5.5-3z"/>
		<path class="s1" d="m189.4 186.2c-5-3.2-10.5-5.4-16.3-6.8-3.5 3-7.4 5.3-11.8 6.5q-1.5 0.4-2.9 0.7c2.8 0.8 5.7 1.3 8.6 1.6 7.6 0.7 15.1-0.1 22.4-2z"/>
		<path class="s0" d="m154.7 98.8c0.9-0.2 1.9-0.5 2.9-0.7 0.7-0.1 0.8-0.1 0.2-0.6-0.9-0.9-2.3-1.1-3.5-1.3-5.3-1.2-11-1.1-16.4-0.2q-4.2 0.7-8.2 1.9c4.6 1 9.3 1.7 14 1.8 3.7 0.1 7.4-0.2 11-0.9z"/>
		<path class="s0" d="m165.4 145.2c6.3 2.3 13.3 3.9 19.3 0.4q1.2-0.6 2-1.4c-1.3-0.6-2.9-0.8-4-0.9-5.9-0.9-11.8-0.3-17.3 1.9z"/>
		<path class="s0" d="m153.9 16.4c-1.7 5.8-7.1 9.5-12.7 11.1-7.1 2.1-14.5 0.3-21.6-1.4-7.5-1.7-14.8-2.7-22.4-0.7-14.1 3.7-25.1 14.7-29.5 28.5-2.3 7.1-3 14.6-2.1 22 0.3 3 0.8 6.2 1.9 8.9 0.7 1.7 1.6 3.3 2.5 4.9 5.1 9.5 10.9 20.7 7.9 31.8-0.9 3.2-2.6 5.8-4.5 8.5-2.2 3.3-4.2 6.8-5.7 10.4-2.6 5.9-3.9 12.3-3.5 18.8 0.6 8.5 4.5 17 11 22.6 6.6 5.8 12.7 11.9 17.3 19.4 5.4 8.7 8.3 18.7 8.7 29 0.4 10.8-1.8 21.5-5.2 31.8h40c2.6-9.6 3.4-19.9-1.5-28.9-3.6-6.6-8.5-12.4-13.1-18.4-4-4.7-7.4-9.9-10.5-14.7-8.1-12.8-14.5-26.8-20-40.9-4.6-12-9-27.2-1.5-39 2.7-4.4 6.8-8 10.8-11.1 4.9-3.7 10.2-6.9 15.7-9.5q1.2-0.6 2.4-1.1-3.9-1.4-7.8-2.9c-3.8-1.4-7.5-2.9-11.2-4.5-3.2-1.4-6.4-2.7-9.1-5-5.5-4.6-6.2-12.1-5.6-18.8 0.8-8.4 2.7-16.6 5.8-24.4 0.8-2.1 4.2-1.2 3.4 0.9q-2.1 5.4-3.5 10.9c-1.6 6.5-3.1 13.9-2 20.7 0.5 3 1.7 5.8 4 7.9 2.4 2.1 5.6 3.4 8.5 4.6 7.3 3.1 14.9 6.2 22.6 8.5 9.4-3.5 19.5-5.5 29.3-4 2.8 0.4 6 0.9 7.9 3 2.4 2.5 0.9 5.4-2.1 6.3-7.7 2.2-16.1 2-23.9 0.8-3.7-0.6-7.4-1.4-11-2.4-6.1 2.3-12 5.4-17.4 9.1-4 2.6-7.8 5.7-11 9.2-3.7 4.1-5.9 9.1-6.2 14.6-0.8 12.4 4.9 24.7 9.8 35.8 5.7 13 12.1 25.6 20.4 37.2 7.1 9.8 16.7 20.9 29.8 21.1 5.4 0.1 11.1-1.8 14.6-6.1 3.8-4.7 4-11.4 2.1-16.9-3.3-9.5-12.8-14-21.2-18.8-1.9-0.8-3.6-1.9-5.2-3.3-0.8-0.7-0.7-2.3 0.3-2.8q0.3-0.2 0.8-0.3c10-4.2 21.1-5.2 31.7-3.2 6-5.7 9.9-13.7 13.3-21.1 0.9-2.1 2.9-4.8 3.1-7.3-1.7 1.5-3.8 2.6-6.2 3.3-7.4 2.1-15.1-0.7-21.9-3.5-1.4-0.5-1.9-2.4-0.5-3.2 7.9-4.3 17.4-5.7 26.2-3.5 0.9 0.2 1.8 0.6 2.7 1 1.6-3.5 1.2-7.9-0.2-11.8-2.4-6.5-6.7-12.3-9.1-18.8-2.7-7-4.2-14.7-4.2-22.2 0-14.1 6.9-27.1 7.7-41.2 0.7-10.9-0.2-22.8-4.8-32.9-2.8-5.9-6.8-10.7-11.8-14.1h-18c4.3 4.2 7.2 10.1 5.5 16.1z"/>
		<path class="s0" d="m66.9 258.6c5.9-17.3-0.9-36.7-12.5-50.1v53.5h11.2q0.7-1.7 1.3-3.4z"/>
		<path class="s1" d="m172 0.3c4.7 4.1 8.2 9.4 10.6 15.5 4.3 11.3 5.1 24.7 3.4 36.6-1 7.4-3.4 14.5-5.2 21.7-1.8 7.7-2.5 15.3-1.2 23.1 1.2 8 4.2 15.1 8 22.1 3.2 5.8 6.7 12.2 5.8 19-0.3 2-1 3.9-2 5.6q0.4 0.8 0.6 1.8c0.4 3.5-1.7 6.8-3.2 9.8-3.1 6.5-6 13-10.6 18.7q-1 1.2-2.1 2.3c6.6 1.8 12.8 4.7 18.3 8.8 1.2 0.9 1.2 2.8-0.4 3.3-8.9 2.8-18.3 4.1-27.6 3.1q-3.3-0.4-6.5-1.1c1.8 1.4 3.4 2.9 4.8 4.6 4.2 5.1 6.4 12 5.5 18.5-1.7 13.6-16.2 19.3-28.3 15.8-2.6-0.7-5.1-1.8-7.4-3.2 1.4 2.1 2.6 4.1 3.7 6.3 4.6 9.2 4 19.7 1.5 29.4h68.2v-261.8z"/>
		<path class="s0" d="m73.9 8.9c5.1-2 10.5-3.4 15.8-4.8 2.7-0.8 5.8-1.9 7.9-3.8h-43.2v22.1c5.2-6 11.8-10.4 19.5-13.5z"/>
		<path class="s0" d="m96.7 221.6c-1.7-9.3-5.9-17.8-11.8-25.1-2.7-3.3-5.7-6.4-8.9-9.3-2.8-2.5-5.6-4.8-7.9-7.9-5.9-7.9-8.4-18-7.1-27.8 0.9-6.8 3.4-13.4 6.9-19.4 1.9-3.1 4.4-6 5.8-9.4 1.1-2.6 1.5-5.5 1.4-8.3-0.2-5.7-2.3-11.1-4.7-16.2-1.9-4-4.3-7.7-6.1-11.8-1-2.5-1.5-5.3-1.9-8-0.6-3.6-0.8-7.2-0.7-10.9 0.3-7.2 2-14.3 5-20.9 5.9-12.5 17.6-22.1 31.1-25 7.4-1.7 14.5-0.8 21.8 0.9 7.1 1.6 14.5 3.7 21.6 1.3 5.8-1.9 10.9-6.9 9.4-13.5-1.1-4.4-4.1-7.6-7.7-10.1h-40.7q-0.1 0.3-0.3 0.6c-3.2 4.4-8.5 6-13.5 7.3-5.5 1.4-11 3-16.2 5.4-7.4 3.4-13.4 8.5-17.8 14.9v174.9q0.7 0.6 1.4 1.3 3.6 4 6.6 8.7c4.9 7.5 8.5 16.1 9.7 25.1 1.2 8.1 0.2 16.1-2.7 23.6h22.8c0.3-0.8 0.6-1.6 0.9-2.5 3.8-12.1 6-25.2 3.6-37.9z"/>
	</g>
</svg>