<svg version="1.2" xmlns="http://www.w3.org/2000/svg" viewBox="0 0 558 241" width="558" height="241">
	<title>LaCatillon-Logo</title>
	<style>
		.s0 { fill: #1d1d1b } 
		.s1 { fill: #9d9d9c } 
	</style>
	<g>
		<path class="s0" d="m141.7 155.5c-5.9-0.8-12-0.2-17.7 1.8q1.1 0.6 2.3 1.2c3.6 1.1 7.8 0.7 11.4-0.7 1.5-0.6 2.8-1.4 4-2.3z"/>
		<path class="s1" d="m157.3 161.2c-3.7-2.4-7.8-4.1-12.1-5-2.6 2.1-5.5 3.8-8.8 4.8q-1.1 0.3-2.2 0.5 3.2 0.8 6.4 1.2c5.7 0.5 11.3-0.1 16.7-1.5z"/>
		<path class="s0" d="m131.5 96.2c0.7-0.1 1.4-0.4 2.1-0.5 0.6-0.1 0.7 0 0.2-0.4-0.7-0.7-1.7-0.8-2.6-1-4-0.9-8.2-0.8-12.2-0.1q-3.1 0.5-6 1.4c3.4 0.7 6.8 1.2 10.3 1.3 2.8 0 5.5-0.1 8.2-0.7z"/>
		<path class="s0" d="m139.5 130.7c4.7 1.7 9.9 2.9 14.3 0.3q0.9-0.5 1.5-1.1c-0.9-0.4-2.2-0.5-3-0.6-4.4-0.7-8.7-0.2-12.8 1.4z"/>
		<path class="s0" d="m130.9 35c-1.2 4.3-5.3 7.1-9.4 8.2-5.3 1.6-10.8 0.3-16.1-1-5.6-1.3-11-2-16.6-0.5-10.5 2.7-18.7 10.9-22 21.2-1.6 5.2-2.1 10.8-1.5 16.3 0.3 2.2 0.6 4.6 1.4 6.7 0.5 1.2 1.2 2.4 1.9 3.6 3.8 7 8.1 15.4 5.8 23.6-0.6 2.4-1.9 4.3-3.3 6.3-1.6 2.5-3.1 5-4.3 7.8-1.8 4.4-2.8 9.1-2.5 13.9 0.4 6.3 3.3 12.6 8.1 16.8 4.9 4.3 9.5 8.8 12.9 14.4 4 6.5 6.2 13.9 6.5 21.5 0.3 8.1-1.3 16-3.9 23.7h29.7c2-7.1 2.5-14.8-1.1-21.5-2.7-4.9-6.3-9.2-9.7-13.6-3-3.5-5.5-7.4-7.8-11-6-9.5-10.8-19.9-14.9-30.3-3.4-9-6.7-20.3-1.1-29.1 2-3.2 5-5.9 8-8.2 3.7-2.8 7.6-5.1 11.7-7.1q0.9-0.4 1.8-0.8-2.9-1-5.8-2.1-4.2-1.6-8.3-3.4c-2.4-1-4.8-2-6.8-3.7-4.1-3.4-4.6-9-4.1-14 0.5-6.2 2-12.3 4.2-18.1 0.6-1.6 3.2-0.9 2.6 0.7q-1.6 4-2.6 8.1c-1.2 4.8-2.3 10.3-1.5 15.3 0.3 2.3 1.2 4.4 3 5.9 1.8 1.6 4.1 2.5 6.3 3.4 5.4 2.4 11 4.7 16.8 6.4 6.9-2.6 14.4-4.1 21.8-3 2 0.3 4.4 0.6 5.8 2.2 1.8 1.9 0.6 4-1.6 4.7-5.7 1.7-11.9 1.5-17.7 0.6-2.8-0.4-5.5-1-8.2-1.8-4.5 1.8-8.9 4.1-12.9 6.8-3 1.9-5.8 4.2-8.2 6.8-2.8 3.1-4.4 6.8-4.6 10.9-0.6 9.2 3.6 18.3 7.3 26.6 4.2 9.6 8.9 19 15.1 27.6 5.3 7.3 12.4 15.5 22.2 15.7 4 0 8.2-1.3 10.8-4.6 2.9-3.5 3-8.4 1.6-12.5-2.5-7-9.5-10.4-15.8-14q-2.1-0.9-3.8-2.4c-0.6-0.5-0.5-1.7 0.2-2.1q0.3-0.2 0.6-0.2c7.4-3.1 15.7-3.9 23.6-2.4 4.4-4.3 7.3-10.2 9.8-15.7 0.7-1.5 2.2-3.6 2.3-5.4-1.3 1.1-2.8 1.9-4.6 2.4-5.5 1.6-11.2-0.5-16.3-2.5-1-0.4-1.4-1.9-0.3-2.5 5.9-3.1 12.9-4.1 19.4-2.5q1.1 0.2 2 0.7c1.3-2.6 1-5.9-0.1-8.7-1.8-4.9-4.9-9.2-6.8-14-2-5.3-3.1-10.9-3.1-16.5 0-10.5 5.1-20.2 5.7-30.6 0.5-8.2-0.1-17-3.6-24.5-2-4.3-5-7.9-8.7-10.5h-13.3c3.1 3.1 5.3 7.5 4 12z"/>
		<path class="s0" d="m66.3 215c4.4-12.9-0.7-27.3-9.3-37.3v39.8h8.3q0.5-1.2 1-2.5z"/>
		<path class="s1" d="m144.4 23c3.4 3.1 6.1 7 7.8 11.6 3.3 8.4 3.9 18.3 2.6 27.1-0.8 5.5-2.6 10.8-3.9 16.2-1.3 5.7-1.8 11.3-0.9 17.2 0.9 5.9 3.1 11.2 6 16.4 2.3 4.3 4.9 9 4.3 14.1-0.3 1.5-0.8 2.9-1.5 4.1q0.3 0.6 0.4 1.4c0.3 2.6-1.3 5-2.3 7.2-2.3 4.9-4.5 9.7-7.9 13.9q-0.7 0.9-1.5 1.8c4.8 1.3 9.5 3.5 13.6 6.5 0.8 0.7 0.8 2.1-0.4 2.4-6.6 2.1-13.6 3.1-20.5 2.4q-2.4-0.3-4.8-0.8c1.3 1 2.5 2.1 3.6 3.4 3.1 3.8 4.7 8.9 4.1 13.7-1.3 10.1-12.1 14.3-21.1 11.8q-2.9-0.9-5.5-2.4c1 1.5 2 3 2.8 4.7 3.4 6.8 2.9 14.6 1 21.8h50.7v-194.5z"/>
		<path class="s0" d="m71.4 29.4c3.9-1.5 7.8-2.5 11.8-3.6 2-0.5 4.3-1.4 5.9-2.8h-32.1v16.5c3.8-4.5 8.8-7.8 14.4-10.1z"/>
		<path class="s0" d="m88.4 187.5c-1.3-6.9-4.4-13.3-8.8-18.7-2-2.5-4.2-4.7-6.5-6.9-2.1-1.8-4.2-3.6-5.9-5.8-4.4-5.9-6.3-13.4-5.3-20.7 0.6-5.1 2.5-10 5.1-14.4 1.4-2.4 3.3-4.5 4.3-7 0.9-2 1.2-4.1 1.1-6.2-0.2-4.2-1.7-8.3-3.5-12-1.4-3-3.2-5.8-4.5-8.8-0.8-1.8-1.2-3.9-1.5-5.9q-0.6-4-0.5-8.1c0.2-5.4 1.5-10.7 3.8-15.5 4.3-9.3 13-16.5 23.1-18.7 5.4-1.2 10.7-0.5 16.1 0.7 5.3 1.2 10.8 2.8 16.1 1 4.3-1.4 8.1-5.1 6.9-10-0.7-3.3-3-5.6-5.7-7.5h-30.2q-0.1 0.2-0.2 0.4c-2.4 3.3-6.3 4.5-10.1 5.4-4.1 1.1-8.2 2.3-12 4-5.5 2.6-9.9 6.3-13.2 11.1v130q0.5 0.5 1 1c1.8 2 3.5 4.1 4.9 6.4 3.7 5.6 6.3 12 7.3 18.6 0.8 6.1 0.1 12-2.1 17.6h17q0.3-0.9 0.6-1.8c2.9-9 4.5-18.8 2.7-28.2z"/>
	</g>
	<g>
		<path class="s0" d="m212.8 156q-2.1 0-3.1-0.2-2.1-0.5-3.5-2-2.2-2.5-2.2-7 0-1.7 0.5-4.2 0.4-2.5 3.7-14.5 9.2-32 18.7-59.3l5.6-16.7q0.4-1 0.9-1.1 0.5 0 0.7 0.4 0.2 0.5 0.2 0.8 0 0.9-8.2 24.6-10.2 30-18.5 60.8-1.7 5.7-1.7 9.7 0 5.6 4.3 6.6 0.4 0.2 1.4 0.2 8.3 0 31-13.5 13-7.8 13.7-7.8 0.6 0 0.6 0.6 0 1-1.2 1.6l-12.7 7.5q-20.5 12.2-29.6 13.4l-0.5 0.1z"/>
		<path class="s0" d="m278.3 125.6q-1.3 0-1.7-0.4-0.4 0-2.1-1.7-0.6-0.7-1.2-2.3-0.5-1.7-0.5-3.4 0-3 0.6-5.5l-3.1 5.1q-3.3 5.4-6 6.8h-0.1l-0.7 0.2q-2.6 0-3.8-1.9-0.2-0.4-0.3-0.4-0.5-1.2-0.5-2.7 0.7-5.2 3.4-8.8 0.1-0.2 0.2-0.4 0.1-0.1 0.2-0.3 0.1-0.1 1.3-1.7 4.2-4.1 9.5-4.1 0.7 0 1.3 0.1 0.3 0.1 0.7 0.1 0.3 0 1.1 0.3 0.1 0 0.4 0.1 0.1 0.1 0.3 0.2 0.1 0.1 0.3 0.3 0.3 0.2 0.3 0.5-2.9 5.1-3.4 11.5 0 5.5 3.2 6.7 0.2 0.1 0.6 0.1 2.7 0 6.4-5.8 2.4-3.9 5.8-9.4 0.6 0 0.6 0.7-4.7 9-8.8 13.8-2.3 2.2-3.4 2.3l-0.6 0.1zm-15.3-3.3q0.7 0 0.7 0 0.1-0.1 0.4-0.2 1.4-0.5 6.7-9.4 1-2 4-6.7-0.7-0.1-1.3-0.1-2.4 0-4.5 0.9-0.1 0.1-0.6 0.3-0.7 0.4-1.4 0.9-0.3 0.3-0.6 0.5-0.3 0.3-0.3 0.3 0 0.1-0.1 0.1-0.2 0.1-0.3 0.3-0.1 0.2-0.3 0.4-0.5 0.5-0.7 0.8-0.1 0.2-0.4 0.5-0.2 0.2-0.4 0.6 0 0.1-0.2 0.2-0.1 0.1-0.2 0.5-2.5 3.8-2.6 7.4 0 2.7 2.2 2.7z"/>
		<path class="s0" d="m337.7 153.8h-0.7q-1.3 0-2.2-0.2l-0.3-0.1q-0.5 0-1-0.3-1.7-0.4-4.3-2.4 0 0-0.1-0.1-0.2 0-1.4-1.2-7.4-7.8-7.4-26.8 0-5.8 0.7-12.5 1.7-17.7 7.8-32.2 8.5-20.7 22.6-25.3 3-0.9 6.1-0.9h1.3 1.3q6.4 1.4 9.3 7.2 2.4 4.7 2.4 10.3 0 1.3-0.1 2.6-0.6 3.8-1.3 5.8-0.6 1.9-2.5 5.7-0.8 1.2-0.8 1.3-0.1 0.1-0.6 0.8-0.5 0.6-0.6 0.9-0.9 1-1.5 1-0.4 0-0.4-0.7 0-1.1 1.6-3.3 2.3-3.4 3.8-9.2 0.5-2 0.5-4.9 0-7.8-4.4-12.6-3-3.1-7.5-3.1-0.4 0-0.5 0.1h-1.1q-3.3 0.5-4.2 0.8-10.9 3.4-18.1 16.7-1.5 2.6-2.7 5.5-0.7 1.3-1.2 2.7-5.7 14.1-7.4 30.8-0.7 6.6-0.7 12.2 0 11.9 3 19.5 2.3 5.4 5.5 7.5 1.3 1 1.4 1.1 0.2 0.1 0.2 0.1 1.9 1.2 4.8 1.2 3 0 7.8-3.8l4.1-3.6q3.8-3.9 3.9-4 0-0.2 0.2-0.2 0.1-0.1 0.2-0.3 0.1-0.1 1-1.2 4.7-5.5 7.1-9.3 0.8-1.1 0.8-1.1 0-0.1 0.7-1.2 0.8-1.1 1-1.1l0.3 0.1q0.5 0 0.5 0.7 0 1.1-1.3 3.1-3.4 5.7-11.7 14.5l-5.5 5.1q-2 1.6-3.7 2.6-1.7 1.1-4.3 1.6-0.2 0-0.4 0.1z"/>
		<path class="s0" d="m390.9 125.6q-1.3 0-1.7-0.4-0.3 0-2-1.7-0.7-0.7-1.2-2.3-0.6-1.7-0.6-3.4 0-3 0.6-5.5l-3 5.1q-3.3 5.4-6 6.8h-0.1l-0.7 0.2q-2.6 0-3.8-1.9-0.2-0.4-0.3-0.4-0.5-1.2-0.5-2.7 0.6-5.2 3.3-8.8 0.2-0.2 0.2-0.4 0.1-0.1 0.2-0.3 0.2-0.1 1.4-1.7 4.2-4.1 9.4-4.1 0.7 0 1.3 0.1 0.4 0.1 0.7 0.1 0.4 0 1.1 0.3 0.2 0 0.5 0.1 0.1 0.1 0.2 0.2 0.2 0.1 0.4 0.3 0.2 0.2 0.2 0.5-2.9 5.1-3.3 11.5 0 5.5 3.2 6.7 0.2 0.1 0.5 0.1 2.8 0 6.5-5.8 2.4-3.9 5.7-9.4 0.7 0 0.7 0.7-4.7 9-8.8 13.8-2.4 2.2-3.4 2.3l-0.7 0.1zm-15.2-3.3q0.6 0 0.7 0 0.1-0.1 0.3-0.2 1.5-0.5 6.8-9.4 1-2 3.9-6.7-0.7-0.1-1.3-0.1-2.3 0-4.4 0.9-0.1 0.1-0.7 0.3-0.7 0.4-1.4 0.9-0.3 0.3-0.5 0.5-0.3 0.3-0.3 0.3 0 0.1-0.2 0.1-0.1 0.1-0.2 0.3-0.2 0.2-0.3 0.4-0.6 0.5-0.7 0.8-0.2 0.2-0.4 0.5-0.2 0.2-0.4 0.6-0.1 0.1-0.2 0.2-0.1 0.1-0.3 0.5-2.4 3.8-2.6 7.4 0 2.7 2.2 2.7z"/>
		<path class="s0" d="m410 84.3q-5.2 20.7-7.9 34-0.6 2.1-3 14.7l-1.7 10q-0.1 0.6-0.7 0.6-0.5 0-0.8-0.3-0.4-0.3-0.4-0.9 1.7-9.5 2.3-12.8 2.6-13.5 4.8-22.8 2.6-12 5.4-22.3-6.4 0.2-12.9 0.8-0.4 0-0.4-0.7 0-1.7 13.7-1.9 0.8-2.8 1.6-5.4l4.4-15.6q0.3-0.6 0.7-0.6 1.1 0.2 1.1 1.2l-2.8 10c0 0-1 3.4-2.9 10.3h4q12.3 0 24.5 1.3 0.4 0 0.4 0.4 0 0.8-0.6 0.8-10.3-0.9-20.5-0.9-4.2 0-8.3 0.1z"/>
		<path class="s0" d="m414.1 124.8q-1.4 0-2.2-0.7-1-0.8-1.2-1.9-0.3-1.1-0.2-2.3v-1.6q0.1-4.8 1.1-9.6 0.1-0.2 0.4-0.2 0.3 0 0.6 0.1 0.4 0.1 0.6 0.3 0.2 0.1 0.2 0.3v0.1q-1 4.5-1.1 9.2l-0.1 0.8q0 2.7 0.4 3.2 0.5 0.5 1.3 0.5 1 0 2.1-0.6l1.9-1.4q6.4-4.8 10.9-12 0.1-0.2 0.2-0.2 0.1 0 0.4 0.1 0.2 0.1 0.4 0.4 0.2 0.2 0.2 0.3v0.2q-3.5 5.9-9.3 11.1-0.3 0.2-0.6 0.5-0.2 0.2-0.9 0.7-0.7 0.4-0.8 0.6-1.6 1.2-2.8 1.8-0.7 0.2-1.5 0.3zm-0.2-18.1h-0.3q-1.5-0.4-1.5-0.4l0.4-2.2 0.3 0.1q1.5 0.3 1.6 0.4z"/>
		<path class="s0" d="m430.6 109.7q-0.4 1.2-0.6 2.5l-3.1 14.6q-2.4 12.7-3.5 20.8-0.5 3.7-0.8 3.7-0.3 0.1-0.4 0.1-0.4 0-0.7-0.4-0.3-0.4-0.3-1.1 0-0.3 1.2-9.3 3.1-18 6.9-33.9 3.4-13.8 8.8-31.1 1.1-3.6 2.5-7.1 3-7.5 7.9-9.3l0.3-0.1q0.5 0 0.9 0.3 0 0 0.1 0.1 0.1 0.1 0.1 0.1 0.3 0.4 0.3 1 0 2.4-1.1 6.1-2.4 8-6.8 18.8-4.1 10.2-8.2 18.2-2.4 4.6-3.5 6zm17.7-48.3q-3.5 1.9-6 7.9-1.3 3.4-2.6 7.7-1.9 6.1-2.3 7.3-2.4 8.1-5 18.4 1.3-2.7 3-6.2 5.6-12.1 9.9-24.3 2.7-7.8 3-10.8zm-4.1 44v0.1q-5.5 21.7-9 44.3-0.2 1.2-0.5 1.2-0.3 0.1-0.3 0.1-0.4 0-0.7-0.5-0.3-0.5-0.3-1.2 0-2.9 5.3-29 2.9-12.4 3.7-15.7 2.2-9.2 7.6-27.1 4.1-12.9 5.3-16.2 3.6-8.6 8.5-10.3h0.3q0.5 0 0.7 0.2 0 0.1 0.1 0.1 0.1 0 0.1 0.1 0.1 0.1 0.2 0.2 0.2 0.6 0.2 1 0 3.4-3.5 13.3-4.6 12.7-10.9 26.7-4.8 10.2-6.8 12.7zm19.2-52q-3.6 2-6.2 8.9-0.6 1.4-2.7 7.5-1.3 4.1-2.6 8.1-1.3 4.1-3.6 12-1.3 5.2-2.3 8.6 1.7-3.1 3.4-7.1 6-13.1 10.7-26.1 3-8.7 3.3-11.9z"/>
		<path class="s0" d="m464.2 115.3q0.4 0 0.8 0 3.9 0 7.8-4.2 1.9-2 2.1-2 0.5 0.1 0.5 0.7 0 0.8-3.5 3.9-3.2 3-7 3-0.5 0-1-0.1-0.4 1.4-1 2.6-2 4.6-5.7 4.8-1.4 0-2.7-1-1.5-1.4-1.9-3.4-0.1-0.4-0.1-0.6-0.1-0.2-0.1-0.6-0.2-1.3-0.2-2.5 0-3.6 1.7-7l0.1-0.1v-0.1q-0.3-0.8-0.3-1.5 0-2.2 1.6-3.5 1.1-0.8 2.5-0.9 2.8 0.1 4.6 2.4 2 2.7 2 7.1 0 1.5-0.2 3zm-2 1q-0.2-0.1-0.5-0.3-0.6-0.3-1.1-0.5-3.8-2.2-5.5-4.6-1.1 2.5-1.1 5.2 0 4.2 1.8 5.7 0.6 0.4 1.4 0.4 0.9 0 1.9-0.6 2.2-1.8 3.1-5.3zm0.3-1.5q0.1-0.3 0.1-0.7 0.2-0.9 0.2-1.7 0-4.2-1.8-6.5-1.4-1.5-3.3-1.5-1 0-1.7 0.7-0.8 0.7-0.8 1.9 0 1.6 1.2 3.2 2.1 2.5 5.1 4.2 0.8 0.3 1 0.4z"/>
		<path class="s0" d="m472.5 126.4q-0.1 0.4-0.2 0.8 0 0.1-0.3 0.1-0.3 0-0.7-0.1-0.3-0.1-0.6-0.2-0.3-0.2-0.3-0.2 2.1-11 4.8-21.8 0.1-0.1 0.4-0.1 1.5 0.2 1.5 0.7-2 7.7-3.6 15.5l5.8-9.8q1.8-3.4 4.7-3.4 1.3 0 2.1 1 0.8 1 0.9 3.7 0 4.7 0.6 6.4 0.5 1.7 1.8 1.7 1.6 0 4.5-3.6 2-2.4 3.6-5 0.2-0.2 0.3-0.3 0.1-0.2 2.1-2.9 0.1-0.2 0.3-0.2 0.1 0 0.3 0.1 0.2 0.1 0.4 0.4 0.1 0.2 0.1 0.4 0 0.2-4 5.8-4.1 6.1-7 6.8h-0.6q-2.6 0-3.4-2.8-0.6-1.8-0.6-3.5 0-5-0.8-6-0.3-0.3-0.9-0.2-1.4 0.2-2.1 1.4-0.4 0.4-2.6 4.2-5.1 8.8-6.5 11.1z"/>
	</g>
	<g>
		<path class="s0" d="m235.6 183.6q-1.2-1.3-1.2-3.3v-10.2q0-2.1 1.2-3.3 1.3-1.2 3.3-1.2 2.1 0 3.4 1.2 1.2 1.2 1.2 3.3v1.1q0 0.3-0.3 0.3h-1.3q-0.3 0-0.3-0.3v-1.2q0-1.2-0.7-2-0.8-0.8-2-0.8-1.2 0-1.9 0.8-0.7 0.8-0.7 2v10.3q0 1.3 0.7 2 0.7 0.8 1.9 0.8 1.2 0 2-0.7 0.7-0.8 0.7-2.1v-3.4q0-0.1-0.1-0.1h-2.3q-0.3 0-0.3-0.3v-1.1q0-0.3 0.3-0.3h4q0.3 0 0.3 0.3v4.9q0 2-1.3 3.2-1.2 1.3-3.3 1.3-2 0-3.3-1.3z"/>
		<path class="s0" d="m252.4 171.1q0.2 0.1 0.1 0.4l-0.3 1.4q0 0.2-0.3 0.2-0.3-0.2-0.8-0.2-0.2 0-0.3 0-1 0.1-1.6 1-0.6 1-0.6 2.4v8q0 0.3-0.3 0.3h-1.4q-0.3 0-0.3-0.3v-13q0-0.3 0.3-0.3h1.4q0.3 0 0.3 0.3v1.6q-0.1 0 0 0.1 0-0.1 0.1-0.1 0.8-2 2.5-2 0.7 0 1.2 0.3z"/>
		<path class="s0" d="m255.2 183.7q-1.1-1.2-1.1-3v-5.8q0-1.8 1.1-3 1.2-1.1 3.1-1.1 1.9 0 3.1 1.1 1.1 1.2 1.1 3v5.8q0 1.8-1.1 3-1.2 1.1-3.1 1.1-1.9 0-3.1-1.1zm4.8-1.3q0.6-0.7 0.6-1.9v-5.5q0-1.1-0.6-1.9-0.7-0.7-1.7-0.7-1 0-1.7 0.7-0.6 0.8-0.6 1.9v5.5q0 1.2 0.6 1.9 0.7 0.7 1.7 0.7 1 0 1.7-0.7z"/>
		<path class="s0" d="m272 171h1.4q0.2 0 0.2 0.3v13q0 0.3-0.2 0.3h-1.4q-0.3 0-0.3-0.3v-0.9q0-0.1 0-0.1-0.1 0-0.1 0.1-0.8 1.3-2.7 1.4-1.6-0.1-2.6-1-0.9-1-0.9-3v-9.5q0-0.3 0.3-0.3h1.3q0.3 0 0.3 0.3v9.1q0 1.3 0.6 2 0.5 0.7 1.6 0.7 1 0 1.6-0.8 0.6-0.8 0.6-2.1v-8.9q0-0.3 0.3-0.3z"/>
		<path class="s0" d="m284.4 171.9q1 1.2 1 3v5.8q0 1.8-1 3-1 1.1-2.7 1.1-0.8 0-1.4-0.3-0.7-0.3-1.2-0.9-0.1 0-0.1 0-0.1 0-0.1 0.1v5.8q0 0.3-0.2 0.3h-1.4q-0.3 0-0.3-0.3v-18.3q0-0.2 0.3-0.2h1.4q0.2 0 0.2 0.2v0.7c0 0 0.1 0 0.1 0q0 0 0.1 0 0.5-0.6 1.2-0.9 0.7-0.2 1.4-0.2 1.7 0 2.7 1.1zm-1.5 1.2q-0.7-0.7-1.7-0.7-1 0-1.6 0.7-0.7 0.8-0.7 1.9v5.5q0 1.2 0.7 1.9 0.6 0.7 1.6 0.7 1 0 1.7-0.7 0.6-0.7 0.6-1.9v-5.5q0-1.1-0.6-1.9z"/>
		<path class="s0" d="m296.2 178.5h-6.1q-0.1 0-0.1 0.1v2q0 1.1 0.6 1.8 0.7 0.7 1.7 0.7 0.8 0 1.4-0.5 0.6-0.5 0.8-1.4 0.1-0.2 0.3-0.2l1.4 0.1q0.1 0 0.1 0 0.1 0.1 0.1 0.3-0.2 1.5-1.3 2.5-1.1 0.9-2.8 0.9-1.9 0-3.1-1.1-1.1-1.2-1.1-3v-5.8q0-1.8 1.1-3 1.2-1.1 3.1-1.1 1.9 0 3 1.1 1.2 1.2 1.2 3v3.3q0 0.3-0.3 0.3zm-5.6-5.3q-0.6 0.7-0.6 1.8v1.8q0 0.1 0.1 0.1h4.4q0.1 0 0.1-0.1v-1.8q0-1.1-0.6-1.8-0.7-0.8-1.7-0.8-1.1 0-1.7 0.8z"/>
		<path class="s0" d="m313.5 166.1v1.1q0 0.3-0.3 0.3h-3.5q-0.1 0-0.1 0.1v16.7q0 0.3-0.3 0.3h-1.4q-0.3 0-0.3-0.3v-16.7q0-0.1-0.1-0.1h-3.3q-0.3 0-0.3-0.3v-1.1q0-0.3 0.3-0.3h9q0.3 0 0.3 0.3z"/>
		<path class="s0" d="m323.4 171.9q0.9 1.1 0.9 3.2v9.2q0 0.3-0.3 0.3h-1.3q-0.3 0-0.3-0.3v-9.1q0-1.3-0.6-2-0.6-0.8-1.6-0.7-1.1 0-1.7 0.7-0.6 0.8-0.6 2.2v8.9q0 0.3-0.2 0.3h-1.4q-0.3 0-0.3-0.3v-18.3q0-0.2 0.3-0.2h1.4q0.2 0 0.2 0.2v6.1c0 0 0 0.1 0.1 0.1q0 0 0.1-0.1 0.4-0.6 1.2-1 0.7-0.3 1.5-0.3 1.7 0 2.6 1.1z"/>
		<path class="s0" d="m335.2 178.5h-6.1q-0.1 0-0.1 0.1v2q0 1.1 0.6 1.8 0.7 0.7 1.7 0.7 0.8 0 1.4-0.5 0.7-0.5 0.8-1.4 0.1-0.2 0.3-0.2l1.4 0.1q0.1 0 0.2 0 0.1 0.1 0 0.3-0.2 1.5-1.3 2.5-1.1 0.9-2.8 0.9-1.9 0-3.1-1.1-1.1-1.2-1.1-3v-5.8q0-1.8 1.1-3 1.2-1.1 3.1-1.1 1.9 0 3.1 1.1 1.1 1.2 1.1 3v3.3q0 0.3-0.3 0.3zm-5.6-5.3q-0.6 0.7-0.6 1.8v1.8q0 0.1 0.1 0.1h4.4q0.1 0 0.1-0.1v-1.8q0-1.1-0.6-1.8-0.7-0.8-1.7-0.8-1 0-1.7 0.8zm0.5-4.1q0-0.1 0-0.2l1.7-2.9q0.1-0.2 0.3-0.2h1.1q0.2 0 0.2 0.1 0.1 0.1 0 0.2l-1.9 2.9q-0.1 0.2-0.3 0.2h-0.9q-0.1 0-0.2-0.1z"/>
		<path class="s0" d="m345.2 172q1.1 1.2 1.1 3.3v9q0.1 0.3-0.2 0.3h-1.4q-0.3 0-0.3-0.3v-0.8c0 0 0-0.1 0-0.1q0 0-0.1 0.1-1 1.3-3 1.3-1.4 0-2.5-0.9-1.1-0.8-1.1-3 0-2.2 1.3-3.3 1.3-1.1 3.5-1.1h1.8q0.1 0 0.2-0.1v-1q-0.1-1.4-0.7-2.2-0.6-0.8-1.6-0.8-0.8 0-1.4 0.6-0.6 0.5-0.7 1.3 0 0.3-0.3 0.3h-1.5q-0.1 0-0.2-0.1 0-0.1 0-0.2 0.1-1.6 1.3-2.6 1.1-0.9 2.8-0.9 1.9 0 3.1 1.2zm-6.1-3.1q-0.1-0.1 0-0.2l1.8-2.7q0.1-0.2 0.3-0.2h1.6q0.2 0 0.3 0.2l1.8 2.7q0.1 0.1 0.1 0.2 0 0.1-0.3 0.1h-1.1q-0.2 0-0.4-0.2l-1.1-1.9c0 0-0.1-0.1-0.1-0.1q0 0-0.1 0.1l-1.2 1.9q-0.1 0.2-0.3 0.2h-1.1q-0.2 0-0.2-0.1zm4.4 13.5q0.8-0.7 0.8-2v-2.2q0-0.1-0.1-0.1h-1.9q-1.3 0-2 0.6-0.8 0.7-0.8 2.1 0 1.1 0.6 1.7 0.6 0.6 1.5 0.6 1.1 0 1.9-0.7z"/>
		<path class="s0" d="m353.8 172.4h-2.1q-0.1 0-0.1 0.1v8.2q0 1.3 0.5 1.7 0.4 0.5 1.3 0.5h0.2q0.3 0 0.3 0.3v1.1q0 0.3-0.3 0.3h-0.6q-1.6 0-2.4-0.7-0.8-0.7-0.8-2.6v-8.8q0-0.1-0.2-0.1h-1q-0.3 0-0.3-0.2v-0.9q0-0.3 0.3-0.3h1q0.2 0 0.2-0.1v-3q0-0.3 0.2-0.3h1.4q0.2 0 0.2 0.3v3q0 0.1 0.1 0.1h2.1q0.3 0 0.3 0.3v0.9q0 0.2-0.3 0.2z"/>
		<path class="s0" d="m362.2 171.1q0.2 0.1 0.1 0.4l-0.3 1.4q0 0.2-0.3 0.2-0.4-0.2-0.8-0.2-0.3 0-0.4 0-0.9 0.1-1.5 1-0.7 1-0.7 2.4v8q0 0.3-0.2 0.3h-1.4q-0.3 0-0.3-0.3v-13q0-0.3 0.3-0.3h1.4q0.2 0 0.2 0.3v1.6q0 0 0.1 0.1 0-0.1 0.1-0.1 0.8-2 2.5-2 0.7 0 1.2 0.3z"/>
		<path class="s0" d="m371.2 172q1.1 1.2 1.1 3.3v9q0 0.3-0.2 0.3h-1.4q-0.3 0-0.3-0.3v-0.8c0 0 0-0.1 0-0.1q-0.1 0-0.1 0.1-1 1.3-3 1.3-1.5 0-2.5-0.9-1.1-0.8-1.1-3 0-2.2 1.3-3.3 1.3-1.1 3.4-1.1h1.9q0.1 0 0.1-0.1v-1q0-1.4-0.6-2.2-0.6-0.8-1.6-0.8-0.9 0-1.4 0.6-0.6 0.5-0.7 1.3 0 0.3-0.3 0.3h-1.5q-0.1 0-0.2-0.1-0.1-0.1 0-0.2 0.1-1.6 1.3-2.6 1.1-0.9 2.8-0.9 1.9 0 3 1.2zm-1.6 10.4q0.8-0.7 0.8-2v-2.2q0-0.1-0.1-0.1h-1.9q-1.3 0-2 0.6-0.8 0.7-0.8 2.1 0 1.1 0.6 1.7 0.6 0.6 1.5 0.6 1.1 0 1.9-0.7z"/>
		<path class="s0" d="m375.1 184.3v-18.2q0-0.3 0.3-0.3h1.4q0.3 0 0.2 0.3v18.2q0.1 0.3-0.2 0.3h-1.4q-0.3 0-0.3-0.3z"/>
		<path class="s0" d="m386.6 183.6q-1.2-1.3-1.2-3.3v-10.2q0-2.1 1.2-3.3 1.3-1.2 3.3-1.2 2.1 0 3.3 1.2 1.3 1.2 1.3 3.3v1.1q0 0.3-0.3 0.3h-1.3q-0.3 0-0.3-0.3v-1.2q0-1.2-0.7-2-0.8-0.8-2-0.8-1.2 0-1.9 0.8-0.7 0.8-0.7 2v10.3q0 1.3 0.7 2 0.7 0.8 1.9 0.8 1.2 0 2-0.7 0.7-0.8 0.7-2.1v-3.4q0-0.1-0.1-0.1h-2.3q-0.3 0-0.3-0.3v-1.1q0-0.3 0.3-0.3h4q0.3 0 0.3 0.3v4.9q0 2-1.3 3.2-1.2 1.3-3.3 1.3-2 0-3.3-1.3z"/>
		<path class="s0" d="m403.4 171.1q0.2 0.1 0.1 0.4l-0.3 1.4q0 0.2-0.3 0.2-0.4-0.2-0.8-0.2-0.3 0-0.4 0-0.9 0.1-1.5 1-0.7 1-0.7 2.4v8q0 0.3-0.2 0.3h-1.4q-0.3 0-0.3-0.3v-13q0-0.3 0.3-0.3h1.4q0.2 0 0.2 0.3v1.6q0 0 0.1 0.1 0-0.1 0.1-0.1 0.7-2 2.5-2 0.7 0 1.2 0.3z"/>
		<path class="s0" d="m411.9 171h1.4q0.3 0 0.3 0.3v13q0 0.3-0.3 0.3h-1.4q-0.2 0-0.2-0.3v-0.9q0-0.1-0.1-0.1 0 0-0.1 0.1-0.8 1.3-2.6 1.4-1.6-0.1-2.6-1-1-1-0.9-3v-9.5q0-0.3 0.2-0.3h1.4q0.3 0 0.3 0.3v9.1q0 1.3 0.5 2 0.6 0.7 1.6 0.7 1.1 0 1.7-0.8 0.6-0.8 0.6-2.1v-8.9q0-0.3 0.3-0.3z"/>
		<path class="s0" d="m416.3 189.9q-0.1-0.1-0.1-0.2v-1.1q0-0.3 0.3-0.3 0.8 0 1.3-0.3 0.5-0.3 0.8-1 0.3-0.8 0.5-2.4 0.1 0 0.1 0 0-0.1-0.1-0.1l-3.4-13.2v-0.1q0-0.2 0.3-0.2h1.4q0.3 0 0.3 0.2l2.4 10.6q0 0.1 0 0.1 0.1 0 0.1-0.1l2.3-10.6q0.1-0.2 0.3-0.2h1.5q0.2 0 0.2 0.1 0.1 0.1 0 0.2l-3.7 14.5q-0.5 1.8-0.9 2.6-0.5 0.9-1.3 1.2-0.7 0.3-2.1 0.4h-0.1c0 0-0.1-0.1-0.1-0.1z"/>
		<path class="s0" d="m434.4 178.5h-6.1q-0.2 0-0.2 0.1v2q0 1.1 0.7 1.8 0.6 0.7 1.6 0.7 0.9 0 1.5-0.5 0.6-0.5 0.8-1.4 0-0.2 0.3-0.2l1.3 0.1q0.1 0 0.2 0 0.1 0.1 0 0.3-0.2 1.5-1.3 2.5-1 0.9-2.8 0.9-1.9 0-3-1.1-1.2-1.2-1.2-3v-5.8q0-1.8 1.2-3 1.1-1.1 3-1.1 1.9 0 3.1 1.1 1.1 1.2 1.1 3v3.3q0 0.3-0.2 0.3zm-3.4-9.5q0 0.2-0.3 0.2h-0.8q-0.2 0-0.3-0.2l-1.9-2.9q-0.1-0.1-0.1-0.2 0-0.1 0.2-0.1h1.2q0.2 0 0.3 0.2l1.6 2.9q0.1 0.1 0.1 0.1zm-2.2 4.2q-0.7 0.7-0.7 1.8v1.8q0 0.1 0.2 0.1h4.3q0.2 0 0.2-0.1v-1.8q0-1.1-0.7-1.8-0.6-0.8-1.7-0.8-1 0-1.6 0.8z"/>
		<path class="s0" d="m443.2 171.1q0.2 0.1 0.2 0.4l-0.4 1.4q0 0.2-0.3 0.2-0.3-0.2-0.8-0.2-0.2 0-0.3 0-1 0.1-1.6 1-0.6 1-0.6 2.4v8q0 0.3-0.3 0.3h-1.3q-0.3 0-0.3-0.3v-13q0-0.3 0.3-0.3h1.3q0.3 0 0.3 0.3v1.6q0 0 0 0.1 0.1-0.1 0.1-0.1 0.8-2 2.6-2 0.6 0 1.1 0.3z"/>
		<path class="s0" d="m453 178.5h-6.1q-0.1 0-0.1 0.1v2q0 1.1 0.6 1.8 0.7 0.7 1.7 0.7 0.9 0 1.5-0.5 0.6-0.5 0.7-1.4 0.1-0.2 0.3-0.2l1.4 0.1q0.1 0 0.2 0 0.1 0.1 0 0.3-0.2 1.5-1.3 2.5-1.1 0.9-2.8 0.9-1.9 0-3.1-1.1-1.1-1.2-1.1-3v-5.8q0-1.8 1.1-3 1.2-1.1 3.1-1.1 1.9 0 3.1 1.1 1.1 1.2 1.1 3v3.3q0 0.3-0.3 0.3zm-5.5-5.3q-0.7 0.7-0.7 1.8v1.8q0 0.1 0.1 0.1h4.4q0.1 0 0.1-0.1v-1.8q0-1.1-0.6-1.8-0.6-0.8-1.7-0.8c-0.7 0-1.2 0.3-1.6 0.8z"/>
		<path class="s0" d="m456.7 183.7q-1.2-0.9-1.2-2.5v-0.2q0.1-0.2 0.3-0.2h1.3q0.3 0 0.3 0.2v0.2q0 0.8 0.6 1.4 0.6 0.6 1.7 0.6 0.9 0 1.5-0.6 0.6-0.6 0.6-1.5 0-0.7-0.4-1.1-0.3-0.5-0.8-0.8-0.5-0.2-1.5-0.7-1.1-0.4-1.8-0.8-0.6-0.4-1.1-1.2-0.5-0.8-0.5-1.9 0-1.8 1-2.7 1.1-1 2.9-1 1.8 0 2.9 1 1.1 1 1 2.7v0.1q0 0.2-0.2 0.2h-1.3q-0.2 0-0.2-0.2v-0.2q0-0.9-0.6-1.5-0.6-0.6-1.6-0.6-1 0-1.5 0.6-0.6 0.6-0.6 1.5 0 0.6 0.3 1.1 0.4 0.4 0.9 0.7 0.5 0.3 1.4 0.7 1.1 0.5 1.8 0.9 0.7 0.4 1.3 1.2 0.5 0.8 0.5 1.9 0 1.7-1.1 2.7-1.1 1-3 1-1.8 0-2.9-1z"/>
	</g>
</svg>