<svg version="1.2" xmlns="http://www.w3.org/2000/svg" viewBox="0 0 367 171" width="367" height="171">
	<title>logo</title>
	<style>
		.s0 { fill: #fff }
	</style>
	<g>
		<path class="s0" d="m44.3 121.1q-2.2 0-3.2-0.2-2-0.5-3.5-2-2.1-2.5-2.1-7 0-1.7 0.4-4.2 0.5-2.6 3.8-14.5 9.2-32.1 18.6-59.3l5.6-16.7q0.4-1.1 1-1.1 0.5 0 0.7 0.4 0.1 0.5 0.2 0.8-0.1 0.9-8.2 24.6-10.2 30-18.5 60.8-1.7 5.7-1.7 9.7 0 5.6 4.3 6.6 0.4 0.1 1.4 0.1 8.3 0 30.9-13.4 13-7.8 13.7-7.8 0.7 0 0.7 0.6 0 0.9-1.3 1.6l-12.6 7.5q-20.5 12.2-29.6 13.4l-0.6 0.1z"/>
		<path class="s0" d="m109.8 90.7q-1.3 0-1.7-0.4-0.4 0-2.1-1.7-0.6-0.7-1.2-2.4-0.6-1.6-0.6-3.3 0-3 0.6-5.5l-3 5.1q-3.3 5.4-6 6.8h-0.1l-0.7 0.2q-2.6-0.1-3.8-1.9-0.2-0.4-0.3-0.4-0.5-1.2-0.5-2.7 0.6-5.3 3.3-8.8 0.2-0.2 0.2-0.4 0.1-0.2 0.3-0.3 0.1-0.1 1.3-1.7 4.2-4.1 9.4-4.1 0.7 0 1.3 0.1 0.4 0.1 0.7 0.1 0.4 0 1.1 0.3 0.2 0 0.5 0.1 0.1 0.1 0.2 0.2 0.2 0.1 0.4 0.3 0.2 0.2 0.2 0.5-2.8 5.1-3.3 11.5 0 5.5 3.2 6.7 0.2 0.1 0.5 0.1 2.8 0 6.5-5.9 2.4-3.8 5.7-9.3 0.7 0 0.7 0.7-4.7 9-8.8 13.8-2.4 2.2-3.4 2.3h-0.7zm-15.2-3.2q0.7 0 0.7 0 0.1-0.1 0.4-0.2 1.4-0.5 6.7-9.4 1-2 3.9-6.7-0.7-0.1-1.3-0.1-2.3 0-4.4 0.9-0.1 0.1-0.7 0.3-0.7 0.4-1.4 0.9-0.3 0.3-0.5 0.5-0.3 0.2-0.3 0.3 0 0-0.2 0.1-0.1 0.1-0.2 0.3-0.2 0.2-0.3 0.3-0.6 0.6-0.7 0.9-0.2 0.2-0.4 0.5-0.2 0.2-0.4 0.6-0.1 0.1-0.2 0.2-0.1 0.1-0.3 0.5-2.4 3.8-2.6 7.4 0 2.7 2.2 2.7z"/>
		<path class="s0" d="m169.1 118.9h-0.6q-1.3 0-2.2-0.2l-0.4-0.1q-0.4 0-1-0.3-1.6-0.5-4.3-2.4 0 0-0.1-0.1-0.1 0-1.3-1.2-7.5-7.8-7.5-26.8 0-5.8 0.7-12.5 1.8-17.7 7.8-32.2 8.5-20.7 22.6-25.3 3-1 6.1-1h1.4l1.3 0.1q6.4 1.4 9.2 7.2 2.5 4.7 2.5 10.3 0 1.2-0.1 2.6-0.7 3.8-1.3 5.8-0.6 1.9-2.5 5.7-0.8 1.1-0.9 1.3 0 0.1-0.5 0.8-0.5 0.6-0.6 0.9-1 1-1.5 1-0.5 0-0.5-0.7 0-1.1 1.7-3.3 2.3-3.4 3.8-9.2 0.4-2 0.4-4.9 0-7.8-4.4-12.6-2.9-3.1-7.5-3.1-0.3 0-0.4 0.1h-1.1q-3.3 0.5-4.3 0.7-10.8 3.5-18 16.7-1.6 2.7-2.7 5.5-0.7 1.3-1.2 2.7-5.7 14.2-7.4 30.9-0.7 6.6-0.7 12.2 0 11.9 3 19.5 2.3 5.3 5.4 7.5 1.3 1 1.5 1.1 0.1 0 0.2 0.1 1.9 1.2 4.7 1.2 3.1 0 7.8-3.8l4.1-3.6q3.9-3.9 3.9-4.1 0.1-0.1 0.2-0.2 0.2 0 0.3-0.2 0.1-0.1 1-1.2 4.6-5.5 7.1-9.4 0.8-1 0.8-1 0-0.1 0.7-1.2 0.7-1.1 1-1.1l0.3 0.1q0.5 0 0.5 0.7 0 1.1-1.3 3.1-3.4 5.7-11.7 14.5l-5.5 5.1q-2.1 1.6-3.8 2.6-1.7 1-4.2 1.6-0.2 0-0.5 0.1z"/>
		<path class="s0" d="m222.4 90.7q-1.3 0-1.7-0.4-0.3 0-2-1.7-0.7-0.7-1.2-2.4-0.6-1.6-0.6-3.3 0-3 0.6-5.5l-3.1 5.1q-3.2 5.4-5.9 6.8h-0.2l-0.7 0.2q-2.5-0.1-3.8-1.9-0.2-0.4-0.3-0.4-0.4-1.2-0.4-2.7 0.6-5.3 3.3-8.8 0.1-0.2 0.2-0.4 0.1-0.2 0.2-0.3 0.1-0.1 1.4-1.7 4.1-4.1 9.4-4.1 0.7 0 1.3 0.1 0.3 0.1 0.7 0.1 0.3 0 1.1 0.3 0.2 0 0.5 0.1 0 0.1 0.2 0.2 0.2 0.1 0.4 0.3 0.2 0.2 0.2 0.5-2.9 5.1-3.4 11.5 0.1 5.5 3.2 6.7 0.3 0.1 0.6 0.1 2.8 0 6.4-5.9 2.4-3.8 5.8-9.3 0.6 0 0.6 0.7-4.7 9-8.8 13.8-2.3 2.2-3.4 2.3h-0.6zm-15.2-3.2q0.6 0 0.7 0 0-0.1 0.3-0.2 1.5-0.5 6.8-9.4 0.9-2 3.9-6.7-0.7-0.1-1.3-0.1-2.3 0-4.5 0.9-0.1 0.1-0.6 0.3-0.7 0.4-1.4 0.9-0.3 0.3-0.6 0.5-0.2 0.2-0.3 0.3 0 0-0.1 0.1-0.1 0.1-0.3 0.3-0.1 0.2-0.3 0.3-0.5 0.6-0.6 0.9-0.2 0.2-0.4 0.5-0.3 0.2-0.4 0.6-0.1 0.1-0.2 0.2-0.1 0.1-0.3 0.5-2.5 3.8-2.6 7.4 0 2.7 2.2 2.7z"/>
		<path class="s0" d="m241.5 49.4q-5.3 20.7-8 34-0.5 2.1-2.9 14.7l-1.8 10q-0.1 0.6-0.6 0.6-0.5 0-0.9-0.3-0.3-0.3-0.3-0.9 1.7-9.5 2.3-12.8 2.6-13.5 4.8-22.8 2.6-12 5.3-22.4-6.3 0.3-12.8 0.9-0.4 0-0.4-0.7 0-1.7 13.7-1.9 0.8-2.8 1.5-5.5l4.5-15.5q0.2-0.6 0.7-0.6 1.1 0.1 1.1 1.1l-2.9 10.1c0 0-1 3.4-2.8 10.3h3.9q12.3 0 24.6 1.3 0.4 0 0.4 0.4 0 0.8-0.6 0.8-10.3-0.9-20.5-0.9-4.2 0-8.3 0.1z"/>
		<path class="s0" d="m245.6 89.9q-1.4 0-2.2-0.7-1-0.8-1.3-1.9-0.2-1.1-0.2-2.4v-1.5q0.1-4.8 1.2-9.6 0.1-0.2 0.3-0.2 0.3 0 0.7 0.1 0.3 0.1 0.6 0.3 0.2 0.1 0.2 0.3-1 4.6-1.2 9.3v0.8q0 2.7 0.4 3.2 0.5 0.5 1.2 0.5 1.1 0 2.2-0.6l1.9-1.4q6.4-4.8 10.9-12 0.1-0.2 0.2-0.2 0.1 0 0.3 0.1 0.3 0.1 0.5 0.3 0.2 0.3 0.2 0.4l-0.1 0.2q-3.5 5.9-9.3 11.1-0.3 0.2-0.5 0.4-0.2 0.2-0.9 0.7-0.7 0.5-0.9 0.7-1.5 1.2-2.8 1.8-0.7 0.2-1.4 0.3zm-0.2-18.1h-0.3q-1.5-0.4-1.6-0.5l0.5-2.1h0.3q1.5 0.4 1.6 0.4z"/>
		<path class="s0" d="m262.1 74.8q-0.4 1.2-0.7 2.5l-3.1 14.5q-2.4 12.8-3.4 20.8-0.5 3.7-0.8 3.8-0.3 0.1-0.4 0.1-0.4 0-0.7-0.4-0.3-0.4-0.4-1.1 0-0.3 1.3-9.3 3-18 6.9-33.9 3.4-13.8 8.8-31.1 1.1-3.6 2.4-7.1 3-7.5 8-9.4h0.3q0.5 0 0.8 0.3 0.1 0 0.2 0.1 0.1 0.1 0.1 0.1 0.3 0.4 0.3 1 0 2.4-1.1 6-2.4 8.1-6.8 18.8-4.1 10.3-8.2 18.3-2.4 4.6-3.5 6zm17.6-48.3q-3.4 1.9-5.9 7.9-1.3 3.4-2.6 7.7-1.9 6.1-2.4 7.3-2.3 8.1-5 18.4 1.4-2.7 3.1-6.2 5.6-12.1 9.8-24.3 2.7-7.8 3-10.8zm-4 44v0.1q-5.5 21.7-9 44.3-0.2 1.1-0.5 1.2-0.3 0.1-0.4 0.1-0.4 0-0.7-0.5-0.3-0.5-0.3-1.2 0.1-3 5.3-29 2.9-12.4 3.8-15.7 2.1-9.2 7.5-27.2 4.2-12.8 5.4-16.1 3.5-8.6 8.5-10.3h0.3q0.4 0 0.6 0.2 0.1 0.1 0.2 0.1 0 0 0.1 0.1 0 0.1 0.2 0.2 0.2 0.5 0.2 1 0 3.4-3.6 13.3-4.5 12.7-10.8 26.7-4.8 10.2-6.8 12.7zm19.2-52q-3.6 2-6.3 8.9-0.6 1.4-2.7 7.5-1.2 4.1-2.5 8.1-1.3 4.1-3.6 12-1.4 5.2-2.3 8.6 1.6-3.1 3.4-7.1 6-13.1 10.7-26.2 3-8.6 3.3-11.8z"/>
		<path class="s0" d="m295.6 80.4q0.5 0 0.9 0 3.8 0 7.8-4.3 1.8-2 2.1-1.9 0.4 0.1 0.4 0.7 0 0.8-3.4 3.9-3.3 3-7 3-0.5 0-1.1-0.1-0.4 1.4-1 2.6-1.9 4.6-5.6 4.8-1.4 0-2.7-1-1.5-1.4-1.9-3.4-0.1-0.4-0.1-0.7-0.2-0.1-0.2-0.5-0.1-1.3-0.1-2.5 0-3.6 1.7-7v-0.2q-0.3-0.8-0.3-1.5 0-2.2 1.6-3.5 1.2-0.8 2.6-0.9 2.8 0.1 4.6 2.4 2 2.7 2 7.1 0 1.5-0.3 2.9zm-1.9 1q-0.2 0-0.5-0.2-0.6-0.3-1.1-0.5-3.8-2.2-5.5-4.6-1.1 2.5-1.1 5.2 0 4.2 1.8 5.6 0.6 0.5 1.4 0.5 0.9 0 1.8-0.6 2.3-1.8 3.2-5.4zm0.3-1.4q0.1-0.3 0.1-0.7 0.1-0.9 0.1-1.7 0-4.2-1.7-6.5-1.4-1.6-3.4-1.5-0.9 0-1.7 0.7-0.7 0.7-0.7 1.9 0 1.6 1.2 3.2 2 2.5 5.1 4.2 0.8 0.3 1 0.4z"/>
		<path class="s0" d="m304 91.5q-0.2 0.3-0.2 0.8 0 0.1-0.3 0.1-0.3 0-0.7-0.1-0.4-0.1-0.6-0.2-0.3-0.2-0.3-0.2 2.1-11 4.8-21.8 0.1-0.1 0.4-0.1 1.4 0.2 1.4 0.6-1.9 7.8-3.5 15.6l5.8-9.8q1.8-3.4 4.7-3.4 1.2 0 2 1 0.8 1 1 3.7 0 4.6 0.5 6.4 0.6 1.7 1.9 1.7 1.5 0 4.5-3.6 2-2.4 3.6-5 0.2-0.2 0.3-0.4 0-0.1 2-2.8 0.2-0.2 0.4-0.2 0.1 0 0.3 0.1 0.2 0.1 0.3 0.4 0.1 0.2 0.1 0.4 0 0.1-3.9 5.8-4.1 6.1-7 6.8h-0.6q-2.6 0-3.5-2.8-0.5-1.8-0.5-3.5 0-5-0.8-6-0.4-0.3-0.9-0.3-1.5 0.3-2.2 1.4-0.3 0.5-2.5 4.3-5.1 8.7-6.5 11.1z"/>
	</g>
	<g>
		<path class="s0" d="m67.1 148.6q-1.2-1.2-1.2-3.2v-10.3q0-2 1.2-3.2 1.2-1.2 3.3-1.2 2.1 0 3.3 1.2 1.3 1.2 1.3 3.3v1.1q0 0.3-0.3 0.3h-1.4q-0.2 0-0.2-0.3v-1.2q0-1.2-0.8-2-0.7-0.8-1.9-0.8-1.2 0-1.9 0.8-0.8 0.8-0.8 2v10.3q0 1.2 0.8 2 0.7 0.8 1.9 0.8 1.2 0 1.9-0.8 0.8-0.7 0.8-2v-3.4q0-0.1-0.1-0.1h-2.4q-0.2 0-0.2-0.3v-1.1q0-0.3 0.2-0.3h4.1q0.3 0 0.3 0.3v4.9q0 2-1.3 3.2-1.2 1.2-3.3 1.3-2.1 0-3.3-1.3z"/>
		<path class="s0" d="m83.9 136.2q0.1 0.1 0.1 0.4l-0.3 1.4q-0.1 0.2-0.3 0.1-0.4-0.1-0.9-0.1-0.2 0-0.3 0-0.9 0.1-1.6 1-0.6 1-0.6 2.3v8.1q0 0.3-0.2 0.3h-1.4q-0.3 0-0.3-0.3v-13.1q0-0.2 0.3-0.2h1.4q0.2 0 0.2 0.2v1.7q0 0 0.1 0 0 0 0.1 0 0.7-2.1 2.5-2.1 0.7 0 1.2 0.3z"/>
		<path class="s0" d="m86.7 148.7q-1.1-1.1-1.1-2.9v-5.8q-0.1-1.8 1.1-3 1.2-1.1 3.1-1.1 1.9 0 3.1 1.1 1.1 1.2 1.1 3v5.8q0 1.8-1.1 2.9-1.2 1.2-3.1 1.2-2 0-3.1-1.2zm4.8-1.2q0.6-0.7 0.6-1.9v-5.5q0-1.2-0.6-1.9-0.7-0.7-1.7-0.7-1 0-1.7 0.7-0.6 0.7-0.6 1.9v5.5q0 1.2 0.6 1.9 0.7 0.7 1.7 0.7 1 0 1.7-0.7z"/>
		<path class="s0" d="m103.4 136.1h1.4q0.3 0 0.3 0.2v13.1q0 0.2-0.3 0.2h-1.4q-0.2 0-0.2-0.2v-0.9q0-0.1-0.1-0.1 0 0 0 0-0.9 1.4-2.7 1.4-1.6 0-2.6-0.9-0.9-1-0.9-3v-9.6q0-0.2 0.2-0.2h1.4q0.3 0 0.3 0.2v9.2q0 1.3 0.5 2 0.6 0.7 1.6 0.7 1.1 0 1.7-0.8 0.6-0.8 0.6-2.1v-9q0-0.2 0.3-0.2z"/>
		<path class="s0" d="m115.9 137q1 1.1 1 3v5.8q0 1.8-1 3-1.1 1.1-2.8 1.1-0.7 0-1.4-0.3-0.7-0.3-1.2-0.9 0 0 0 0-0.1 0-0.1 0.1v5.8q0 0.3-0.3 0.3h-1.3q-0.3 0-0.3-0.3v-18.3q0-0.2 0.3-0.2h1.3q0.3 0 0.3 0.2v0.7c0 0 0 0 0.1 0q0 0 0.1 0 0.5-0.6 1.1-0.9 0.7-0.3 1.5-0.2 1.6 0 2.7 1.1zm-1.6 1.2q-0.6-0.7-1.6-0.7-1 0-1.7 0.7-0.6 0.7-0.6 1.9v5.5q0 1.2 0.6 1.9 0.7 0.7 1.7 0.7 1 0 1.6-0.7 0.7-0.7 0.7-1.9v-5.5q0-1.2-0.7-1.9z"/>
		<path class="s0" d="m127.7 143.6h-6.1q-0.1 0-0.1 0.1v2q0 1.1 0.6 1.8 0.6 0.7 1.6 0.7 0.9 0 1.5-0.5 0.6-0.5 0.8-1.4 0.1-0.2 0.3-0.2h1.3q0.1 0.1 0.2 0.1 0.1 0.1 0.1 0.2-0.2 1.6-1.3 2.6-1.1 0.9-2.9 0.9-1.9 0-3-1.2-1.2-1.1-1.2-2.9v-5.8q0-1.9 1.2-3 1.1-1.1 3-1.1 2 0 3.1 1.1 1.1 1.2 1.1 3v3.3q0 0.3-0.2 0.3zm-5.6-5.4q-0.7 0.7-0.7 1.9v1.8q0.1 0.1 0.2 0.1h4.4q0.1 0 0.1-0.1v-1.8q0-1.1-0.7-1.9-0.6-0.7-1.7-0.7-1 0-1.6 0.7z"/>
		<path class="s0" d="m144.9 131.1v1.2q0 0.2-0.2 0.2h-3.6q-0.1 0-0.1 0.1v16.8q0 0.3-0.3 0.3h-1.3q-0.3 0-0.3-0.3v-16.8q0-0.1-0.1-0.1h-3.3q-0.3 0-0.3-0.2v-1.2q0-0.2 0.3-0.2h9q0.2 0 0.2 0.2z"/>
		<path class="s0" d="m154.9 137q0.9 1.1 0.9 3.1v9.3q0 0.2-0.3 0.2h-1.4q-0.2 0-0.2-0.2v-9.1q0-1.3-0.6-2-0.6-0.8-1.6-0.8-1.1 0-1.7 0.8-0.6 0.8-0.6 2.1v9q0 0.2-0.3 0.2h-1.4q-0.2 0-0.2-0.2v-18.3q0-0.2 0.2-0.2h1.4q0.3 0 0.3 0.2v6.1c0 0 0 0 0 0.1q0.1 0 0.1-0.1 0.5-0.7 1.2-1 0.8-0.3 1.6-0.3 1.6 0 2.6 1.1z"/>
		<path class="s0" d="m166.7 143.6h-6.1q-0.1 0-0.1 0.1v2q0 1.1 0.6 1.8 0.6 0.7 1.7 0.7 0.8 0 1.4-0.5 0.6-0.5 0.8-1.4 0.1-0.2 0.3-0.2h1.3q0.2 0.1 0.2 0.1 0.1 0.1 0.1 0.2-0.2 1.6-1.3 2.6-1.1 0.9-2.8 0.9-1.9 0-3.1-1.2-1.1-1.1-1.1-2.9v-5.8q0-1.9 1.1-3 1.2-1.1 3.1-1.1 1.9 0 3 1.1 1.2 1.2 1.2 3v3.3q0 0.3-0.3 0.3zm-5.6-5.4q-0.6 0.7-0.6 1.9v1.8q0 0.1 0.1 0.1h4.4q0.1 0 0.1-0.1v-1.8q0-1.1-0.7-1.9-0.6-0.7-1.6-0.7-1.1 0-1.7 0.7zm0.5-4q-0.1-0.1 0-0.2l1.7-3q0.1-0.1 0.3-0.1h1.1q0.2 0 0.2 0 0 0.1-0.1 0.3l-1.8 2.9q-0.2 0.2-0.4 0.2h-0.8q-0.2 0-0.2-0.1z"/>
		<path class="s0" d="m176.7 137.1q1.1 1.2 1.1 3.2v9.1q0 0.2-0.2 0.2h-1.4q-0.3 0-0.3-0.2v-0.8c0 0 0-0.1 0-0.1q-0.1 0-0.1 0-1 1.4-3 1.4-1.5 0-2.6-0.9-1.1-0.8-1-3 0-2.3 1.3-3.3 1.3-1.1 3.4-1.1h1.9q0.1 0 0.1-0.1v-1q0-1.4-0.6-2.2-0.6-0.8-1.7-0.8-0.8 0-1.3 0.5-0.6 0.6-0.7 1.4 0 0.3-0.3 0.3h-1.5q-0.1-0.1-0.2-0.1-0.1-0.1 0-0.2 0.1-1.6 1.3-2.6 1.1-1 2.8-1 1.9 0 3 1.3zm-6-3.1q-0.1-0.1 0-0.2l1.7-2.8q0.2-0.1 0.4-0.1h1.6q0.2-0.1 0.3 0.1l1.8 2.8q0 0.1 0 0.2 0 0.1-0.2 0.1h-1.2q-0.1 0-0.3-0.2l-1.1-1.9c0 0-0.1-0.1-0.1-0.1q-0.1 0-0.1 0.1l-1.2 1.9q-0.1 0.2-0.3 0.2h-1.2q-0.1 0-0.2-0.1zm4.5 13.5q0.8-0.7 0.8-2v-2.2q0-0.2-0.1-0.2h-1.9q-1.3 0-2 0.7-0.8 0.7-0.8 2.1 0 1.1 0.6 1.7 0.6 0.6 1.5 0.6 1.1 0 1.9-0.7z"/>
		<path class="s0" d="m185.3 137.5h-2.1q-0.1 0-0.1 0.1v8.2q0 1.2 0.4 1.7 0.5 0.5 1.3 0.5h0.3q0.3 0 0.3 0.2v1.2q0 0.3-0.3 0.3h-0.7q-1.5 0-2.4-0.7-0.8-0.7-0.8-2.6v-8.8q0-0.1-0.1-0.1h-1q-0.3 0-0.3-0.3v-0.8q0-0.3 0.3-0.3h1q0.1 0 0.1-0.1v-3q0-0.3 0.3-0.3h1.3q0.3 0 0.3 0.3v3q0 0.1 0.1 0.1h2.1q0.2 0 0.2 0.3v0.8q0 0.3-0.2 0.3z"/>
		<path class="s0" d="m193.6 136.2q0.2 0.1 0.2 0.4l-0.3 1.4q-0.1 0.2-0.4 0.1-0.3-0.1-0.8-0.1-0.2 0-0.3 0-1 0.1-1.6 1-0.6 1-0.6 2.3v8.1q0 0.3-0.3 0.3h-1.3q-0.3 0-0.3-0.3v-13.1q0-0.2 0.3-0.2h1.3q0.3 0 0.3 0.2v1.7q0 0 0.1 0 0 0 0 0 0.8-2.1 2.6-2.1 0.7 0 1.1 0.3z"/>
		<path class="s0" d="m202.7 137.1q1.1 1.2 1.1 3.2v9.1q0 0.2-0.3 0.2h-1.3q-0.3 0-0.3-0.2v-0.8c0 0 0-0.1 0-0.1q-0.1 0-0.1 0-1 1.4-3 1.4-1.5 0-2.6-0.9-1.1-0.8-1.1-3 0-2.3 1.4-3.3 1.3-1.1 3.4-1.1h1.9q0.1 0 0.1-0.1v-1q0-1.4-0.6-2.2-0.6-0.8-1.7-0.8-0.8 0-1.4 0.5-0.5 0.6-0.6 1.4 0 0.3-0.3 0.3h-1.5q-0.1-0.1-0.2-0.1-0.1-0.1 0-0.2 0.1-1.6 1.2-2.6 1.2-1 2.9-1 1.9 0 3 1.3zm-1.6 10.4q0.8-0.7 0.8-2v-2.2q0-0.2-0.1-0.2h-1.9q-1.3 0-2.1 0.7-0.7 0.7-0.7 2.1 0 1.1 0.6 1.7 0.6 0.6 1.5 0.6 1.1 0 1.9-0.7z"/>
		<path class="s0" d="m206.6 149.4v-18.3q0-0.2 0.3-0.2h1.4q0.2 0 0.2 0.2v18.3q0 0.3-0.2 0.3h-1.4q-0.3 0-0.3-0.3z"/>
		<path class="s0" d="m218.1 148.6q-1.2-1.2-1.2-3.2v-10.3q0-2 1.2-3.2 1.2-1.2 3.3-1.2 2.1 0 3.3 1.2 1.3 1.2 1.3 3.3v1.1q0 0.3-0.3 0.3h-1.4q-0.2 0-0.2-0.3v-1.2q0-1.2-0.8-2-0.7-0.8-1.9-0.8-1.2 0-1.9 0.8-0.8 0.8-0.8 2v10.3q0 1.2 0.8 2 0.7 0.8 1.9 0.8 1.2 0 1.9-0.8 0.7-0.7 0.8-2v-3.4q-0.1-0.1-0.2-0.1h-2.3q-0.2 0-0.2-0.3v-1.1q0-0.3 0.2-0.3h4.1q0.3 0 0.3 0.3v4.9q0 2-1.3 3.2-1.3 1.2-3.3 1.3-2.1 0-3.3-1.3z"/>
		<path class="s0" d="m234.8 136.2q0.2 0.1 0.2 0.4l-0.4 1.4q0 0.2-0.3 0.1-0.3-0.1-0.8-0.1-0.2 0-0.3 0-1 0.1-1.6 1-0.6 1-0.6 2.3v8.1q0 0.3-0.3 0.3h-1.3q-0.3 0-0.3-0.3v-13.1q0-0.2 0.3-0.2h1.3q0.3 0 0.3 0.2v1.7q0 0 0 0 0.1 0 0.1 0 0.8-2.1 2.6-2.1 0.7 0 1.1 0.3z"/>
		<path class="s0" d="m243.4 136.1h1.4q0.3 0 0.3 0.2v13.1q0 0.2-0.3 0.2h-1.4q-0.3 0-0.3-0.2v-0.9q0-0.1 0-0.1 0 0-0.1 0-0.8 1.4-2.7 1.4-1.6 0-2.5-0.9-1-1-1-3v-9.6q0-0.2 0.3-0.2h1.4q0.2 0 0.2 0.2v9.2q0 1.3 0.6 2 0.5 0.7 1.6 0.7 1 0 1.7-0.8 0.6-0.8 0.6-2.1v-9q0-0.2 0.2-0.2z"/>
		<path class="s0" d="m247.8 154.9q-0.1 0-0.1-0.2v-1q0-0.3 0.3-0.3 0.8 0 1.3-0.3 0.4-0.3 0.7-1.1 0.3-0.7 0.6-2.3 0 0 0-0.1 0 0 0 0l-3.4-13.2v-0.1q0-0.2 0.2-0.2h1.5q0.3 0 0.3 0.2l2.4 10.6q0 0 0 0.1 0-0.1 0.1-0.1l2.3-10.6q0.1-0.2 0.3-0.2h1.5q0.1 0 0.2 0.1 0.1 0.1 0 0.2l-3.7 14.5q-0.5 1.7-1 2.6-0.4 0.9-1.2 1.2-0.7 0.3-2.1 0.3h-0.1c0 0-0.1 0-0.2 0z"/>
		<path class="s0" d="m265.8 143.6h-6.1q-0.1 0-0.1 0.1v2q0 1.1 0.6 1.8 0.7 0.7 1.7 0.7 0.8 0 1.4-0.5 0.7-0.5 0.8-1.4 0.1-0.2 0.3-0.2h1.4q0.1 0.1 0.2 0.1 0.1 0.1 0 0.2-0.2 1.6-1.3 2.6-1.1 0.9-2.8 0.9-1.9 0-3.1-1.2-1.1-1.1-1.1-2.9v-5.8q0-1.9 1.1-3 1.2-1.1 3.1-1.1 1.9 0 3.1 1.1 1.1 1.2 1.1 3v3.3q0 0.3-0.3 0.3zm-3.4-9.5q0 0.2-0.2 0.2h-0.9q-0.1 0-0.3-0.2l-1.9-2.9q0-0.1 0-0.2 0-0.1 0.2-0.1h1.1q0.2 0 0.4 0.2l1.6 2.9q0.1 0.1 0 0.1zm-2.2 4.1q-0.6 0.7-0.6 1.9v1.8q0 0.1 0.1 0.1h4.4q0.1 0 0.1-0.1v-1.8q0-1.1-0.6-1.9-0.7-0.7-1.7-0.7-1 0-1.7 0.7z"/>
		<path class="s0" d="m274.7 136.2q0.2 0.1 0.1 0.4l-0.3 1.4q0 0.2-0.3 0.1-0.3-0.1-0.8-0.1-0.2 0-0.3 0-1 0.1-1.6 1-0.6 1-0.6 2.3v8.1q0 0.3-0.3 0.3h-1.4q-0.2 0-0.2-0.3v-13.1q0-0.2 0.2-0.2h1.4q0.3 0 0.3 0.2v1.7q0 0 0 0 0 0 0.1 0 0.8-2.1 2.5-2.1 0.7 0 1.2 0.3z"/>
		<path class="s0" d="m284.5 143.6h-6.1q-0.1 0-0.1 0.1v2q0 1.1 0.6 1.8 0.6 0.7 1.7 0.7 0.8 0 1.4-0.5 0.6-0.5 0.8-1.4 0.1-0.2 0.3-0.2h1.4q0.1 0.1 0.1 0.1 0.1 0.1 0.1 0.2-0.2 1.6-1.3 2.6-1.1 0.9-2.8 0.9-1.9 0-3.1-1.2-1.1-1.1-1.1-2.9v-5.8q0-1.9 1.1-3 1.2-1.1 3.1-1.1 1.9 0 3 1.1 1.2 1.2 1.2 3v3.3q0 0.3-0.3 0.3zm-5.6-5.4q-0.6 0.8-0.6 1.9v1.8q0 0.1 0.1 0.1h4.4q0.1 0 0.1-0.1v-1.8q0-1.1-0.6-1.9-0.7-0.7-1.7-0.7c-0.7 0-1.2 0.3-1.7 0.7z"/>
		<path class="s0" d="m288.1 148.8q-1.1-0.9-1.1-2.5v-0.2q0-0.3 0.3-0.3h1.3q0.2 0 0.2 0.3v0.2q0 0.8 0.7 1.4 0.6 0.6 1.6 0.6 1 0 1.6-0.6 0.6-0.6 0.6-1.5 0-0.7-0.4-1.1-0.4-0.5-0.9-0.8-0.5-0.3-1.5-0.7-1-0.4-1.7-0.8-0.7-0.4-1.2-1.2-0.5-0.8-0.5-1.9 0-1.8 1.1-2.8 1.1-1 2.8-1 1.9 0 2.9 1.1 1.1 1 1.1 2.7 0 0.3-0.3 0.3h-1.2q-0.3 0-0.3-0.3v-0.1q0-0.9-0.6-1.5-0.6-0.6-1.5-0.6-1 0-1.6 0.6-0.5 0.6-0.5 1.5 0 0.6 0.3 1.1 0.4 0.4 0.9 0.7 0.5 0.3 1.4 0.7 1.1 0.5 1.8 0.9 0.7 0.4 1.2 1.2 0.6 0.8 0.6 1.9 0 1.7-1.1 2.7-1.1 1-3 1-1.9 0-3-1z"/>
	</g>
</svg>
