<svg version="1.2" xmlns="http://www.w3.org/2000/svg" viewBox="0 0 369 130" width="369" height="130">
	<title>logo-horizontal</title>
	<style>
		.s0 { fill: #fff }
	</style>
	<g>
		<path class="s0" d="m43.8 118q-2.1 0-3.1-0.2-2.1-0.5-3.5-2-2.2-2.5-2.2-7 0-1.7 0.5-4.2 0.4-2.5 3.7-14.5 9.2-32 18.7-59.3l5.6-16.7q0.4-1 0.9-1.1 0.5 0 0.7 0.4 0.2 0.5 0.2 0.8 0 0.9-8.2 24.6-10.2 30-18.5 60.8-1.7 5.7-1.7 9.7 0 5.6 4.3 6.6 0.4 0.2 1.4 0.2 8.3 0 31-13.5 13-7.8 13.7-7.8 0.6 0 0.6 0.6 0 1-1.2 1.6l-12.7 7.5q-20.5 12.2-29.6 13.4l-0.5 0.1z"/>
		<path class="s0" d="m109.3 87.6q-1.3 0-1.7-0.4-0.4 0-2.1-1.7-0.6-0.7-1.2-2.3-0.5-1.7-0.5-3.4 0-3 0.6-5.5l-3.1 5.1q-3.3 5.4-6 6.8h-0.1l-0.7 0.2q-2.6 0-3.8-1.9-0.2-0.4-0.3-0.4-0.5-1.2-0.5-2.7 0.7-5.2 3.4-8.8 0.1-0.2 0.2-0.4 0.1-0.1 0.2-0.3 0.1-0.1 1.3-1.7 4.2-4.1 9.5-4.1 0.7 0 1.3 0.1 0.3 0.1 0.7 0.1 0.3 0 1.1 0.3 0.1 0 0.4 0.1 0.1 0.1 0.3 0.2 0.1 0.1 0.3 0.3 0.3 0.2 0.3 0.5-2.9 5.1-3.4 11.5 0 5.5 3.2 6.7 0.2 0.1 0.6 0.1 2.7 0 6.4-5.8 2.4-3.9 5.8-9.4 0.6 0 0.6 0.7-4.7 9-8.8 13.8-2.3 2.2-3.4 2.3l-0.6 0.1zm-15.3-3.3q0.7 0 0.7 0 0.1-0.1 0.4-0.2 1.4-0.5 6.7-9.4 1-2 4-6.7-0.7-0.1-1.3-0.1-2.4 0-4.5 0.9-0.1 0.1-0.6 0.3-0.7 0.4-1.4 0.9-0.3 0.3-0.6 0.5-0.3 0.3-0.3 0.3 0 0.1-0.1 0.1-0.2 0.1-0.3 0.3-0.1 0.2-0.3 0.4-0.5 0.5-0.7 0.8-0.1 0.2-0.4 0.5-0.2 0.2-0.4 0.6 0 0.1-0.2 0.2-0.1 0.1-0.2 0.5-2.5 3.8-2.6 7.4 0 2.7 2.2 2.7z"/>
		<path class="s0" d="m168.7 115.8h-0.7q-1.3 0-2.2-0.2l-0.3-0.1q-0.5 0-1-0.3-1.7-0.4-4.3-2.4 0 0-0.1-0.1-0.2 0-1.4-1.2-7.4-7.8-7.4-26.8 0-5.8 0.7-12.5 1.7-17.7 7.8-32.2 8.5-20.7 22.6-25.3 3-0.9 6.1-0.9h1.3 1.3q6.4 1.4 9.3 7.2 2.4 4.7 2.4 10.3 0 1.3-0.1 2.6-0.6 3.8-1.3 5.8-0.6 1.9-2.5 5.7-0.8 1.2-0.8 1.3-0.1 0.1-0.6 0.8-0.5 0.6-0.6 0.9-0.9 1-1.5 1-0.4 0-0.4-0.7 0-1.1 1.6-3.3 2.3-3.4 3.8-9.2 0.5-2 0.5-4.9 0-7.8-4.4-12.6-3-3.1-7.5-3.1-0.4 0-0.5 0.1h-1.1q-3.3 0.5-4.2 0.8-10.9 3.4-18.1 16.7-1.5 2.6-2.7 5.5-0.7 1.3-1.2 2.7-5.7 14.1-7.4 30.8-0.7 6.6-0.7 12.2 0 11.9 3 19.5 2.3 5.4 5.5 7.5 1.3 1 1.4 1.1 0.2 0.1 0.2 0.1 1.9 1.2 4.8 1.2 3 0 7.8-3.8l4.1-3.6q3.8-3.9 3.9-4 0-0.2 0.2-0.2 0.1-0.1 0.2-0.3 0.1-0.1 1-1.2 4.7-5.5 7.1-9.3 0.8-1.1 0.8-1.1 0-0.1 0.7-1.2 0.8-1.1 1-1.1l0.3 0.1q0.5 0 0.5 0.7 0 1.1-1.3 3.1-3.4 5.7-11.7 14.5l-5.5 5.1q-2 1.6-3.7 2.6-1.7 1.1-4.3 1.6-0.2 0-0.4 0.1z"/>
		<path class="s0" d="m221.9 87.6q-1.3 0-1.7-0.4-0.3 0-2-1.7-0.7-0.7-1.2-2.3-0.6-1.7-0.6-3.4 0-3 0.6-5.5l-3 5.1q-3.3 5.4-6 6.8h-0.1l-0.7 0.2q-2.6 0-3.8-1.9-0.2-0.4-0.3-0.4-0.5-1.2-0.5-2.7 0.6-5.2 3.3-8.8 0.2-0.2 0.2-0.4 0.1-0.1 0.2-0.3 0.2-0.1 1.4-1.7 4.2-4.1 9.4-4.1 0.7 0 1.3 0.1 0.4 0.1 0.7 0.1 0.4 0 1.1 0.3 0.2 0 0.5 0.1 0.1 0.1 0.2 0.2 0.2 0.1 0.4 0.3 0.2 0.2 0.2 0.5-2.9 5.1-3.3 11.5 0 5.5 3.2 6.7 0.2 0.1 0.5 0.1 2.8 0 6.5-5.8 2.4-3.9 5.7-9.4 0.7 0 0.7 0.7-4.7 9-8.8 13.8-2.4 2.2-3.4 2.3l-0.7 0.1zm-15.2-3.3q0.6 0 0.7 0 0.1-0.1 0.3-0.2 1.5-0.5 6.8-9.4 1-2 3.9-6.7-0.7-0.1-1.3-0.1-2.3 0-4.4 0.9-0.1 0.1-0.7 0.3-0.7 0.4-1.4 0.9-0.3 0.3-0.5 0.5-0.3 0.3-0.3 0.3 0 0.1-0.2 0.1-0.1 0.1-0.2 0.3-0.2 0.2-0.3 0.4-0.6 0.5-0.7 0.8-0.2 0.2-0.4 0.5-0.2 0.2-0.4 0.6-0.1 0.1-0.2 0.2-0.1 0.1-0.3 0.5-2.4 3.8-2.6 7.4 0 2.7 2.2 2.7z"/>
		<path class="s0" d="m241 46.3q-5.2 20.7-7.9 34-0.6 2.1-3 14.7l-1.7 10q-0.1 0.6-0.7 0.6-0.5 0-0.8-0.3-0.4-0.3-0.4-0.9 1.7-9.5 2.3-12.8 2.6-13.5 4.8-22.8 2.6-12 5.4-22.3-6.4 0.2-12.9 0.8-0.4 0-0.4-0.7 0-1.7 13.7-1.9 0.8-2.8 1.6-5.4l4.4-15.6q0.3-0.6 0.7-0.6 1.1 0.2 1.1 1.2l-2.8 10c0 0-1 3.4-2.9 10.3h4q12.3 0 24.5 1.3 0.4 0 0.4 0.4 0 0.8-0.6 0.8-10.3-0.9-20.5-0.9-4.2 0-8.3 0.1z"/>
		<path class="s0" d="m245.1 86.8q-1.4 0-2.2-0.7-1-0.8-1.2-1.9-0.3-1.1-0.2-2.3v-1.6q0.1-4.8 1.1-9.6 0.1-0.2 0.4-0.2 0.3 0 0.6 0.1 0.4 0.1 0.6 0.3 0.2 0.1 0.2 0.3v0.1q-1 4.5-1.1 9.2l-0.1 0.8q0 2.7 0.4 3.2 0.5 0.5 1.3 0.5 1 0 2.1-0.6l1.9-1.4q6.4-4.8 10.9-12 0.1-0.2 0.2-0.2 0.1 0 0.4 0.1 0.2 0.1 0.4 0.4 0.2 0.2 0.2 0.3v0.2q-3.5 5.9-9.3 11.1-0.3 0.2-0.6 0.5-0.2 0.2-0.9 0.7-0.7 0.4-0.8 0.6-1.6 1.2-2.8 1.8-0.7 0.2-1.5 0.3zm-0.2-18.1h-0.3q-1.5-0.4-1.5-0.4l0.4-2.2 0.3 0.1q1.5 0.3 1.6 0.4z"/>
		<path class="s0" d="m261.6 71.7q-0.4 1.2-0.6 2.5l-3.1 14.6q-2.4 12.7-3.5 20.8-0.5 3.7-0.8 3.7-0.3 0.1-0.4 0.1-0.4 0-0.7-0.4-0.3-0.4-0.3-1.1 0-0.3 1.2-9.3 3.1-18 6.9-33.9 3.4-13.8 8.8-31.1 1.1-3.6 2.5-7.1 3-7.5 7.9-9.3l0.3-0.1q0.5 0 0.9 0.3 0 0 0.1 0.1 0.1 0.1 0.1 0.1 0.3 0.4 0.3 1 0 2.4-1.1 6.1-2.4 8-6.8 18.8-4.1 10.2-8.2 18.2-2.4 4.6-3.5 6zm17.7-48.3q-3.5 1.9-6 7.9-1.3 3.4-2.6 7.7-1.9 6.1-2.3 7.3-2.4 8.1-5 18.4 1.3-2.7 3-6.2 5.6-12.1 9.9-24.3 2.7-7.8 3-10.8zm-4.1 44v0.1q-5.5 21.7-9 44.3-0.2 1.2-0.5 1.2-0.3 0.1-0.3 0.1-0.4 0-0.7-0.5-0.3-0.5-0.3-1.2 0-2.9 5.3-29 2.9-12.4 3.7-15.7 2.2-9.2 7.6-27.1 4.1-12.9 5.3-16.2 3.6-8.6 8.5-10.3h0.3q0.5 0 0.7 0.2 0 0.1 0.1 0.1 0.1 0 0.1 0.1 0.1 0.1 0.2 0.2 0.2 0.6 0.2 1 0 3.4-3.5 13.3-4.6 12.7-10.9 26.7-4.8 10.2-6.8 12.7zm19.2-52q-3.6 2-6.2 8.9-0.6 1.4-2.7 7.5-1.3 4.1-2.6 8.1-1.3 4.1-3.6 12-1.3 5.2-2.3 8.6 1.7-3.1 3.4-7.1 6-13.1 10.7-26.1 3-8.7 3.3-11.9z"/>
		<path class="s0" d="m295.2 77.3q0.4 0 0.8 0 3.9 0 7.8-4.2 1.9-2 2.1-2 0.5 0.1 0.5 0.7 0 0.8-3.5 3.9-3.2 3-7 3-0.5 0-1-0.1-0.4 1.4-1 2.6-2 4.6-5.7 4.8-1.4 0-2.7-1-1.5-1.4-1.9-3.4-0.1-0.4-0.1-0.6-0.1-0.2-0.1-0.6-0.2-1.3-0.2-2.5 0-3.6 1.7-7l0.1-0.1v-0.1q-0.3-0.8-0.3-1.5 0-2.2 1.6-3.5 1.1-0.8 2.5-0.9 2.8 0.1 4.6 2.4 2 2.7 2 7.1 0 1.5-0.2 3zm-2 1q-0.2-0.1-0.5-0.3-0.6-0.3-1.1-0.5-3.8-2.2-5.5-4.6-1.1 2.5-1.1 5.2 0 4.2 1.8 5.7 0.6 0.4 1.4 0.4 0.9 0 1.9-0.6 2.2-1.8 3.1-5.3zm0.3-1.5q0.1-0.3 0.1-0.7 0.2-0.9 0.2-1.7 0-4.2-1.8-6.5-1.4-1.5-3.3-1.5-1 0-1.7 0.7-0.8 0.7-0.8 1.9 0 1.6 1.2 3.2 2.1 2.5 5.1 4.2 0.8 0.3 1 0.4z"/>
		<path class="s0" d="m303.5 88.4q-0.1 0.4-0.2 0.8 0 0.1-0.3 0.1-0.3 0-0.7-0.1-0.3-0.1-0.6-0.2-0.3-0.2-0.3-0.2 2.1-11 4.8-21.8 0.1-0.1 0.4-0.1 1.5 0.2 1.5 0.7-2 7.7-3.6 15.5l5.8-9.8q1.8-3.4 4.7-3.4 1.3 0 2.1 1 0.8 1 0.9 3.7 0 4.7 0.6 6.4 0.5 1.7 1.8 1.7 1.6 0 4.5-3.6 2-2.4 3.6-5 0.2-0.2 0.3-0.3 0.1-0.2 2.1-2.9 0.1-0.2 0.3-0.2 0.1 0 0.3 0.1 0.2 0.1 0.4 0.4 0.1 0.2 0.1 0.4 0 0.2-4 5.8-4.1 6.1-7 6.8h-0.6q-2.6 0-3.4-2.8-0.6-1.8-0.6-3.5 0-5-0.8-6-0.3-0.3-0.9-0.2-1.4 0.2-2.1 1.4-0.4 0.4-2.6 4.2-5.1 8.8-6.5 11.1z"/>
	</g>
</svg>
