<svg version="1.2" xmlns="http://www.w3.org/2000/svg" viewBox="0 0 348 447" width="348" height="447">
	<title>logo</title>
	<style>
		.s0 { fill: #1d1d1b } 
		.s1 { fill: #9d9d9c } 
	</style>
	<g>
		<path class="s0" d="m208.5 195.6c-8-1.1-16.3-0.3-24 2.4q1.6 0.8 3.1 1.6c5 1.5 10.6 0.9 15.4-1 2-0.8 3.8-1.8 5.5-3z"/>
		<path class="s1" d="m229.4 203.2c-5-3.2-10.5-5.4-16.3-6.8-3.5 3-7.4 5.3-11.8 6.5q-1.5 0.4-2.9 0.7c2.8 0.8 5.7 1.3 8.6 1.6 7.6 0.7 15.1-0.1 22.4-2z"/>
		<path class="s0" d="m194.7 115.8c0.9-0.2 1.9-0.5 2.9-0.7 0.7-0.1 0.8-0.1 0.2-0.6-0.9-0.9-2.3-1.1-3.5-1.3-5.3-1.2-11-1.1-16.4-0.2q-4.2 0.7-8.2 1.9c4.6 1 9.3 1.7 14 1.8 3.7 0.1 7.4-0.2 11-0.9z"/>
		<path class="s0" d="m205.4 162.2c6.3 2.3 13.3 3.9 19.3 0.4q1.2-0.6 2-1.4c-1.3-0.6-2.9-0.8-4-0.9-5.9-0.9-11.8-0.3-17.3 1.9z"/>
		<path class="s0" d="m193.9 33.4c-1.7 5.8-7.1 9.5-12.7 11.1-7.1 2.1-14.5 0.3-21.6-1.4-7.5-1.7-14.8-2.7-22.4-0.7-14.1 3.7-25.1 14.7-29.5 28.5-2.3 7.1-3 14.6-2.1 22 0.3 3 0.8 6.2 1.9 8.9 0.7 1.7 1.6 3.3 2.5 4.9 5.1 9.5 10.9 20.7 7.9 31.8-0.9 3.2-2.6 5.8-4.5 8.5-2.2 3.3-4.2 6.8-5.7 10.4-2.6 5.9-3.9 12.3-3.5 18.8 0.6 8.5 4.5 17 11 22.6 6.6 5.8 12.7 11.9 17.3 19.4 5.4 8.7 8.3 18.7 8.7 29 0.4 10.8-1.8 21.5-5.2 31.8h40c2.6-9.6 3.4-19.9-1.5-28.9-3.6-6.6-8.5-12.4-13.1-18.4-4-4.7-7.4-9.9-10.5-14.7-8.1-12.8-14.5-26.8-20-40.9-4.6-12-9-27.2-1.5-39 2.7-4.4 6.8-8 10.8-11.1 4.9-3.7 10.2-6.9 15.7-9.5q1.2-0.6 2.4-1.1-3.9-1.4-7.8-2.9c-3.8-1.4-7.5-2.9-11.2-4.5-3.2-1.4-6.4-2.7-9.1-5-5.5-4.6-6.2-12.1-5.6-18.8 0.8-8.4 2.7-16.6 5.8-24.4 0.8-2.1 4.2-1.2 3.4 0.9q-2.1 5.4-3.5 10.9c-1.6 6.5-3.1 13.9-2 20.7 0.5 3 1.7 5.8 4 7.9 2.4 2.1 5.6 3.4 8.5 4.6 7.3 3.1 14.9 6.2 22.6 8.5 9.4-3.5 19.5-5.5 29.3-4 2.8 0.4 6 0.9 7.9 3 2.4 2.5 0.9 5.4-2.1 6.3-7.7 2.2-16.1 2-23.9 0.8-3.7-0.6-7.4-1.4-11-2.4-6.1 2.3-12 5.4-17.4 9.1-4 2.6-7.8 5.7-11 9.2-3.7 4.1-5.9 9.1-6.2 14.6-0.8 12.4 4.9 24.7 9.8 35.8 5.7 13 12.1 25.6 20.4 37.2 7.1 9.8 16.7 20.9 29.8 21.1 5.4 0.1 11.1-1.8 14.6-6.1 3.8-4.7 4-11.4 2.1-16.9-3.3-9.5-12.8-14-21.2-18.8-1.9-0.8-3.6-1.9-5.2-3.3-0.8-0.7-0.7-2.3 0.3-2.8q0.3-0.2 0.8-0.3c10-4.2 21.1-5.2 31.7-3.2 6-5.7 9.9-13.7 13.3-21.1 0.9-2.1 2.9-4.8 3.1-7.3-1.7 1.5-3.8 2.6-6.2 3.3-7.4 2.1-15.1-0.7-21.9-3.5-1.4-0.5-1.9-2.4-0.5-3.2 7.9-4.3 17.4-5.7 26.2-3.5 0.9 0.2 1.8 0.6 2.7 1 1.6-3.5 1.2-7.9-0.2-11.8-2.4-6.5-6.7-12.3-9.1-18.8-2.7-7-4.2-14.7-4.2-22.2 0-14.1 6.9-27.1 7.7-41.2 0.7-10.9-0.2-22.8-4.8-32.9-2.8-5.9-6.8-10.7-11.8-14.1h-18c4.3 4.2 7.2 10.1 5.5 16.1z"/>
		<path class="s0" d="m106.9 275.6c5.9-17.3-0.9-36.7-12.5-50.1v53.5h11.2q0.7-1.7 1.3-3.4z"/>
		<path class="s1" d="m212 17.3c4.7 4.1 8.2 9.4 10.6 15.5 4.3 11.3 5.1 24.7 3.4 36.6-1 7.4-3.4 14.5-5.2 21.7-1.8 7.7-2.5 15.3-1.2 23.1 1.2 8 4.2 15.1 8 22.1 3.2 5.8 6.7 12.2 5.8 19-0.3 2-1 3.9-2 5.6q0.4 0.8 0.6 1.8c0.4 3.5-1.7 6.8-3.2 9.8-3.1 6.5-6 13-10.6 18.7q-1 1.2-2.1 2.3c6.6 1.8 12.8 4.7 18.3 8.8 1.2 0.9 1.2 2.8-0.4 3.3-8.9 2.8-18.3 4.1-27.6 3.1q-3.3-0.4-6.5-1.1c1.8 1.4 3.4 2.9 4.8 4.6 4.2 5.1 6.4 12 5.5 18.5-1.7 13.6-16.2 19.3-28.3 15.8-2.6-0.7-5.1-1.8-7.4-3.2 1.4 2.1 2.6 4.1 3.7 6.3 4.6 9.2 4 19.7 1.5 29.4h68.2v-261.8z"/>
		<path class="s0" d="m113.9 25.9c5.1-2 10.5-3.4 15.8-4.8 2.7-0.8 5.8-1.9 7.9-3.8h-43.2v22.1c5.2-6 11.8-10.4 19.5-13.5z"/>
		<path class="s0" d="m136.7 238.6c-1.7-9.3-5.9-17.8-11.8-25.1-2.7-3.3-5.7-6.4-8.9-9.3-2.8-2.5-5.6-4.8-7.9-7.9-5.9-7.9-8.4-18-7.1-27.8 0.9-6.8 3.4-13.4 6.9-19.4 1.9-3.1 4.4-6 5.8-9.4 1.1-2.6 1.5-5.5 1.4-8.3-0.2-5.7-2.3-11.1-4.7-16.2-1.9-4-4.3-7.7-6.1-11.8-1-2.5-1.5-5.3-1.9-8-0.6-3.6-0.8-7.2-0.7-10.9 0.3-7.2 2-14.3 5-20.9 5.9-12.5 17.6-22.1 31.1-25 7.4-1.7 14.5-0.8 21.8 0.9 7.1 1.6 14.5 3.7 21.6 1.3 5.8-1.9 10.9-6.9 9.4-13.5-1.1-4.4-4.1-7.6-7.7-10.1h-40.7q-0.1 0.3-0.3 0.6c-3.2 4.4-8.5 6-13.5 7.3-5.5 1.4-11 3-16.2 5.4-7.4 3.4-13.4 8.5-17.8 14.9v174.9q0.7 0.6 1.4 1.3 3.6 4 6.6 8.7c4.9 7.5 8.5 16.1 9.7 25.1 1.2 8.1 0.2 16.1-2.7 23.6h22.8c0.3-0.8 0.6-1.6 0.9-2.5 3.8-12.1 6-25.2 3.6-37.9z"/>
	</g>
	<g>
		<path class="s0" d="m35.3 396.1q-2.2 0-3.2-0.2-2-0.5-3.5-2-2.1-2.5-2.1-7 0-1.7 0.4-4.2 0.5-2.6 3.8-14.5 9.2-32.1 18.6-59.3l5.6-16.7q0.4-1.1 1-1.1 0.5 0 0.7 0.4 0.1 0.5 0.2 0.8-0.1 0.9-8.2 24.6-10.2 30-18.5 60.8-1.7 5.7-1.7 9.7 0 5.6 4.3 6.6 0.4 0.1 1.4 0.1 8.3 0 30.9-13.4 13-7.8 13.7-7.8 0.7 0 0.7 0.6 0 0.9-1.3 1.6l-12.6 7.5q-20.5 12.2-29.6 13.4z"/>
		<path class="s0" d="m100.8 365.7q-1.3 0-1.7-0.4-0.4 0-2.1-1.7-0.6-0.7-1.2-2.3-0.6-1.7-0.6-3.4 0-3 0.6-5.5l-3 5.1q-3.3 5.4-6 6.8h-0.1l-0.7 0.2q-2.6-0.1-3.8-1.9-0.2-0.4-0.3-0.4-0.5-1.2-0.5-2.7 0.6-5.3 3.3-8.8 0.2-0.2 0.2-0.4 0.1-0.2 0.3-0.3 0.1-0.1 1.3-1.7 4.2-4.1 9.4-4.1 0.7 0 1.3 0.1 0.4 0.1 0.7 0.1 0.4 0 1.1 0.3 0.2 0 0.5 0.1 0.1 0.1 0.2 0.2 0.2 0.1 0.4 0.3 0.2 0.2 0.2 0.5-2.8 5.1-3.3 11.5 0 5.5 3.2 6.7 0.2 0.1 0.5 0.1 2.8 0 6.5-5.9 2.4-3.8 5.7-9.3 0.7 0 0.7 0.7-4.7 9-8.8 13.8-2.4 2.2-3.4 2.3h-0.7zm-15.2-3.2q0.7 0 0.7 0 0.1-0.1 0.4-0.2 1.4-0.5 6.7-9.4 1-2 3.9-6.7-0.7-0.1-1.3-0.1-2.3 0-4.4 0.9-0.1 0.1-0.7 0.3-0.7 0.4-1.4 0.9-0.3 0.3-0.5 0.5-0.3 0.2-0.3 0.3 0 0-0.2 0.1-0.1 0.1-0.2 0.3-0.2 0.2-0.3 0.3-0.6 0.6-0.7 0.9-0.2 0.2-0.4 0.5-0.2 0.2-0.4 0.6-0.1 0.1-0.2 0.2-0.1 0.1-0.3 0.5-2.4 3.8-2.6 7.4 0 2.7 2.2 2.7z"/>
		<path class="s0" d="m160.1 393.9h-0.6q-1.3 0-2.2-0.2l-0.4-0.1q-0.4 0-1-0.3-1.6-0.5-4.3-2.4 0 0-0.1-0.1-0.1 0-1.3-1.2-7.5-7.8-7.5-26.8 0-5.8 0.7-12.5 1.8-17.7 7.8-32.2 8.5-20.7 22.6-25.3 3-1 6.1-1h1.4l1.3 0.1q6.4 1.4 9.2 7.2 2.5 4.7 2.5 10.3 0 1.2-0.1 2.6-0.7 3.8-1.3 5.8-0.6 1.9-2.5 5.7-0.8 1.1-0.9 1.3 0 0.1-0.5 0.8-0.5 0.6-0.6 0.9-1 1-1.5 1-0.5 0-0.5-0.7 0-1.1 1.7-3.3 2.3-3.4 3.8-9.2 0.4-2 0.4-4.9 0-7.8-4.4-12.6-2.9-3.1-7.5-3.1-0.3 0-0.4 0.1h-1.1q-3.3 0.5-4.3 0.7-10.8 3.5-18 16.7-1.6 2.7-2.7 5.6-0.7 1.2-1.2 2.7-5.7 14.1-7.4 30.8-0.7 6.6-0.7 12.2 0 11.9 3 19.5 2.3 5.3 5.4 7.5 1.3 1 1.5 1.1 0.1 0 0.2 0.1 1.9 1.2 4.7 1.2 3.1 0 7.8-3.8l4.1-3.6q3.9-3.9 3.9-4 0.1-0.2 0.2-0.2 0.2-0.1 0.3-0.3 0.1-0.1 1-1.2 4.6-5.5 7.1-9.4 0.8-1 0.8-1 0-0.1 0.7-1.2 0.7-1.1 1-1.1l0.3 0.1q0.5 0 0.5 0.7 0 1.1-1.3 3.1-3.4 5.7-11.7 14.5l-5.5 5.1q-2.1 1.6-3.8 2.6-1.7 1-4.2 1.6-0.2 0-0.5 0.1z"/>
		<path class="s0" d="m213.4 365.7q-1.3 0-1.7-0.4-0.3 0-2-1.7-0.7-0.7-1.2-2.3-0.6-1.7-0.6-3.4 0-3 0.6-5.5l-3.1 5.1q-3.2 5.4-5.9 6.8h-0.2l-0.7 0.2q-2.5-0.1-3.8-1.9-0.2-0.4-0.3-0.4-0.4-1.2-0.4-2.7 0.6-5.3 3.3-8.8 0.1-0.2 0.2-0.4 0.1-0.2 0.2-0.3 0.1-0.1 1.4-1.7 4.1-4.1 9.4-4.1 0.7 0 1.3 0.1 0.3 0.1 0.7 0.1 0.3 0 1.1 0.3 0.2 0 0.5 0.1 0 0.1 0.2 0.2 0.2 0.1 0.4 0.3 0.2 0.2 0.2 0.5-2.9 5.1-3.4 11.5 0.1 5.5 3.2 6.7 0.3 0.1 0.6 0.1 2.8 0 6.4-5.9 2.4-3.8 5.8-9.3 0.6 0 0.6 0.7-4.7 9-8.8 13.8-2.3 2.2-3.4 2.3zm-15.2-3.2q0.6 0 0.7 0 0-0.1 0.3-0.2 1.5-0.5 6.8-9.4 0.9-2 3.9-6.7-0.7-0.1-1.3-0.1-2.3 0-4.5 0.9-0.1 0.1-0.6 0.3-0.7 0.4-1.4 0.9-0.3 0.3-0.6 0.5-0.2 0.2-0.3 0.3 0 0-0.1 0.1-0.1 0.1-0.3 0.3-0.1 0.2-0.3 0.3-0.5 0.6-0.6 0.9-0.2 0.2-0.4 0.5-0.3 0.2-0.4 0.6-0.1 0.1-0.2 0.2-0.1 0.1-0.3 0.5-2.5 3.8-2.6 7.4 0 2.7 2.2 2.7z"/>
		<path class="s0" d="m232.5 324.4q-5.3 20.7-8 34-0.5 2.1-2.9 14.7l-1.8 10q-0.1 0.6-0.6 0.6-0.5 0-0.9-0.3-0.3-0.3-0.3-0.9 1.7-9.5 2.3-12.8 2.6-13.5 4.8-22.8 2.6-12 5.3-22.4-6.3 0.3-12.8 0.9-0.4 0-0.4-0.7 0-1.7 13.7-1.9 0.8-2.8 1.5-5.5l4.5-15.5q0.2-0.6 0.7-0.6 1.1 0.2 1.1 1.1l-2.9 10.1c0 0-1 3.4-2.8 10.3h3.9q12.3 0 24.6 1.3 0.4 0 0.4 0.4 0 0.8-0.6 0.8-10.3-0.9-20.5-0.9-4.2 0-8.3 0.1z"/>
		<path class="s0" d="m236.6 364.9q-1.4 0-2.2-0.7-1-0.8-1.3-1.9-0.2-1.1-0.2-2.4v-1.5q0.1-4.8 1.2-9.6 0.1-0.2 0.3-0.2 0.3 0 0.7 0.1 0.3 0.1 0.6 0.3 0.2 0.1 0.2 0.3-1 4.6-1.2 9.3v0.8q0 2.7 0.4 3.2 0.5 0.5 1.2 0.5 1.1 0 2.2-0.6l1.9-1.4q6.4-4.8 10.9-12 0.1-0.2 0.2-0.2 0.1 0 0.3 0.1 0.3 0.1 0.5 0.3 0.2 0.3 0.2 0.4l-0.1 0.2q-3.5 5.9-9.3 11.1-0.3 0.2-0.5 0.4-0.2 0.2-0.9 0.7-0.7 0.5-0.9 0.7-1.5 1.2-2.8 1.8-0.7 0.2-1.4 0.3zm-0.2-18.1h-0.3q-1.5-0.4-1.6-0.5l0.5-2.1h0.3q1.5 0.4 1.6 0.5z"/>
		<path class="s0" d="m253.1 349.8q-0.4 1.2-0.7 2.5l-3.1 14.5q-2.4 12.8-3.4 20.8-0.5 3.7-0.8 3.8-0.3 0.1-0.4 0.1-0.4 0-0.7-0.4-0.3-0.4-0.4-1.1 0-0.3 1.3-9.3 3-18 6.9-33.9 3.4-13.8 8.8-31.1 1.1-3.6 2.4-7.1 3-7.5 8-9.4h0.3q0.5 0 0.8 0.3 0.1 0 0.2 0.1 0.1 0.1 0.1 0.1 0.3 0.4 0.3 1 0 2.4-1.1 6-2.4 8.1-6.8 18.8-4.1 10.3-8.2 18.3-2.4 4.6-3.5 6zm17.6-48.3q-3.4 1.9-5.9 7.9-1.3 3.4-2.6 7.7-1.9 6.1-2.4 7.3-2.3 8.1-5 18.4 1.4-2.7 3.1-6.2 5.6-12.1 9.8-24.3 2.7-7.8 3-10.8zm-4 44v0.1q-5.5 21.7-9 44.3-0.2 1.1-0.5 1.2-0.3 0.1-0.4 0.1-0.4 0-0.7-0.5-0.3-0.5-0.3-1.2 0.1-3 5.3-29 2.9-12.4 3.8-15.7 2.1-9.2 7.5-27.2 4.2-12.8 5.4-16.1 3.5-8.6 8.5-10.3h0.3q0.4 0 0.6 0.2 0.1 0.1 0.2 0.1 0 0 0.1 0.1 0 0.1 0.2 0.2 0.2 0.5 0.2 1 0 3.4-3.6 13.3-4.5 12.7-10.8 26.7-4.8 10.2-6.8 12.7zm19.2-52q-3.6 2-6.3 8.9-0.6 1.4-2.7 7.5-1.2 4.1-2.5 8.1-1.3 4.1-3.6 12-1.4 5.2-2.3 8.6 1.6-3.1 3.4-7.1 6-13.1 10.7-26.2 3-8.6 3.3-11.8z"/>
		<path class="s0" d="m286.6 355.4q0.5 0 0.9 0 3.8 0 7.8-4.3 1.8-2 2.1-1.9 0.4 0.1 0.4 0.7 0 0.8-3.4 3.9-3.3 3-7 3-0.5 0-1.1-0.1-0.4 1.4-1 2.6-1.9 4.6-5.6 4.8-1.4 0-2.7-1-1.5-1.4-1.9-3.4-0.1-0.4-0.1-0.7-0.2-0.1-0.2-0.5-0.1-1.3-0.1-2.5 0-3.6 1.7-7v-0.2q-0.3-0.8-0.3-1.5 0-2.2 1.6-3.5 1.2-0.8 2.6-0.9 2.8 0.1 4.6 2.4 2 2.7 2 7.1 0 1.5-0.3 2.9zm-1.9 1q-0.2 0-0.5-0.2-0.6-0.3-1.1-0.5-3.8-2.2-5.5-4.6-1.1 2.5-1.1 5.2 0 4.2 1.8 5.6 0.6 0.5 1.4 0.5 0.9 0 1.8-0.6 2.3-1.8 3.2-5.4zm0.3-1.4q0.1-0.3 0.1-0.7 0.1-0.9 0.1-1.7 0-4.2-1.7-6.5-1.4-1.6-3.4-1.5-0.9 0-1.7 0.7-0.7 0.7-0.7 1.9 0 1.6 1.2 3.2 2 2.5 5.1 4.2 0.8 0.3 1 0.4z"/>
		<path class="s0" d="m295 366.5q-0.2 0.3-0.2 0.8 0 0.1-0.3 0.1-0.3 0-0.7-0.1-0.4-0.1-0.6-0.2-0.3-0.2-0.3-0.2 2.1-11 4.8-21.8 0.1-0.1 0.4-0.1 1.4 0.2 1.4 0.6-1.9 7.8-3.5 15.6l5.8-9.8q1.8-3.4 4.7-3.4 1.2 0 2 1 0.8 1 1 3.7 0 4.6 0.5 6.4 0.6 1.7 1.9 1.7 1.5 0 4.5-3.6 2-2.4 3.6-5 0.2-0.2 0.3-0.4 0-0.1 2-2.8 0.2-0.2 0.4-0.2 0.1 0 0.3 0.1 0.2 0.1 0.3 0.4 0.1 0.2 0.1 0.4 0 0.1-3.9 5.8-4.1 6.1-7 6.8h-0.6q-2.6 0-3.5-2.8-0.5-1.8-0.5-3.5 0-5-0.8-6-0.4-0.3-0.9-0.3-1.5 0.3-2.2 1.4-0.3 0.5-2.5 4.3-5.1 8.7-6.5 11.1z"/>
	</g>
	<g>
		<path class="s0" d="m58.1 423.6q-1.2-1.2-1.2-3.2v-10.3q0-2 1.2-3.2 1.2-1.2 3.3-1.2 2.1 0 3.3 1.2 1.3 1.2 1.3 3.3v1.1q0 0.3-0.3 0.3h-1.4q-0.2 0-0.2-0.3v-1.2q0-1.2-0.8-2-0.7-0.8-1.9-0.8-1.2 0-1.9 0.8-0.8 0.8-0.8 2v10.3q0 1.2 0.8 2 0.7 0.8 1.9 0.8 1.2 0 1.9-0.8 0.8-0.7 0.8-2v-3.4q0-0.1-0.1-0.1h-2.4q-0.2 0-0.2-0.3v-1.1q0-0.3 0.2-0.3h4.1q0.3 0 0.3 0.3v4.9q0 2-1.3 3.2-1.2 1.2-3.3 1.2-2.1 0.1-3.3-1.2z"/>
		<path class="s0" d="m74.9 411.2q0.1 0.1 0.1 0.4l-0.3 1.4q-0.1 0.2-0.3 0.1-0.4-0.1-0.9-0.1-0.2 0-0.3 0-0.9 0.1-1.6 1-0.6 1-0.6 2.3v8.1q0 0.3-0.2 0.3h-1.4q-0.3 0-0.3-0.3v-13.1q0-0.2 0.3-0.2h1.4q0.2 0 0.2 0.2v1.7q0 0 0.1 0 0 0 0.1 0 0.7-2.1 2.5-2.1 0.7 0 1.2 0.3z"/>
		<path class="s0" d="m77.7 423.7q-1.1-1.1-1.1-2.9v-5.8q-0.1-1.8 1.1-3 1.2-1.1 3.1-1.1 1.9 0 3.1 1.1 1.1 1.2 1.1 3v5.8q0 1.8-1.1 2.9-1.2 1.2-3.1 1.2-2 0-3.1-1.2zm4.8-1.2q0.6-0.7 0.6-1.9v-5.5q0-1.2-0.6-1.9-0.7-0.7-1.7-0.7-1 0-1.7 0.7-0.6 0.7-0.6 1.9v5.5q0 1.2 0.6 1.9 0.7 0.7 1.7 0.7 1 0 1.7-0.7z"/>
		<path class="s0" d="m94.4 411.1h1.4q0.3 0 0.3 0.2v13.1q0 0.2-0.3 0.2h-1.4q-0.2 0-0.2-0.2v-0.9q0-0.1-0.1-0.1-0.9 1.4-2.7 1.4-1.6 0-2.6-0.9-0.9-1-0.9-3v-9.6q0-0.2 0.2-0.2h1.4q0.3 0 0.3 0.2v9.2q0 1.3 0.5 2 0.6 0.7 1.6 0.7 1.1 0 1.7-0.8 0.6-0.8 0.6-2.1v-9q0-0.2 0.3-0.2z"/>
		<path class="s0" d="m106.9 412q1 1.1 1 3v5.8q0 1.8-1 3-1.1 1.1-2.8 1.1-0.7 0-1.4-0.3-0.7-0.3-1.2-0.9 0-0.1 0 0-0.1 0-0.1 0.1v5.8q0 0.3-0.3 0.3h-1.3q-0.3 0-0.3-0.3v-18.3q0-0.2 0.3-0.2h1.3q0.3 0 0.3 0.2v0.7c0 0 0 0 0.1 0q0 0 0.1 0 0.5-0.6 1.1-0.9 0.7-0.3 1.5-0.2 1.6 0 2.7 1.1zm-1.6 1.2q-0.6-0.7-1.6-0.7-1 0-1.7 0.7-0.6 0.7-0.6 1.9v5.5q0 1.2 0.6 1.9 0.7 0.7 1.7 0.7 1 0 1.6-0.7 0.7-0.7 0.7-1.9v-5.5q0-1.2-0.7-1.9z"/>
		<path class="s0" d="m118.7 418.6h-6.1q-0.1 0-0.1 0.1v2q0 1.1 0.6 1.8 0.6 0.7 1.6 0.7 0.9 0 1.5-0.5 0.6-0.5 0.8-1.4 0.1-0.2 0.3-0.2h1.3q0.1 0.1 0.2 0.1 0.1 0.1 0.1 0.2-0.2 1.6-1.3 2.6-1.1 0.9-2.9 0.9-1.9 0-3-1.2-1.2-1.1-1.2-2.9v-5.8q0-1.9 1.2-3 1.1-1.1 3-1.1 2 0 3.1 1.1 1.1 1.2 1.1 3v3.3q0 0.3-0.2 0.3zm-5.6-5.4q-0.7 0.7-0.7 1.9v1.8q0.1 0.1 0.2 0.1h4.4q0.1 0 0.1-0.1v-1.8q0-1.1-0.7-1.9-0.6-0.7-1.7-0.7-1 0-1.6 0.7z"/>
		<path class="s0" d="m135.9 406.1v1.2q0 0.2-0.2 0.2h-3.6q-0.1 0-0.1 0.1v16.8q0 0.3-0.3 0.3h-1.3q-0.3 0-0.3-0.3v-16.8q0-0.1-0.1-0.1h-3.3q-0.3 0-0.3-0.2v-1.2q0-0.2 0.3-0.2h9q0.2 0 0.2 0.2z"/>
		<path class="s0" d="m145.9 412q0.9 1.1 0.9 3.1v9.3q0 0.2-0.3 0.2h-1.4q-0.2 0-0.2-0.2v-9.1q0-1.3-0.6-2-0.6-0.8-1.6-0.8-1.1 0-1.7 0.8-0.6 0.8-0.6 2.1v9q0 0.2-0.3 0.2h-1.4q-0.2 0-0.2-0.2v-18.3q0-0.2 0.2-0.2h1.4q0.3 0 0.3 0.2v6.1c0 0 0 0 0 0.1q0.1 0 0.1-0.1 0.5-0.7 1.2-1 0.8-0.3 1.6-0.3 1.6 0 2.6 1.1z"/>
		<path class="s0" d="m157.7 418.6h-6.1q-0.1 0-0.1 0.1v2q0 1.1 0.6 1.8 0.6 0.7 1.7 0.7 0.8 0 1.4-0.5 0.6-0.5 0.8-1.4 0.1-0.2 0.3-0.2h1.3q0.2 0.1 0.2 0.1 0.1 0.1 0.1 0.2-0.2 1.6-1.3 2.6-1.1 0.9-2.8 0.9-1.9 0-3.1-1.2-1.1-1.1-1.1-2.9v-5.8q0-1.9 1.1-3 1.2-1.1 3.1-1.1 1.9 0 3 1.1 1.2 1.2 1.2 3v3.3q0 0.3-0.3 0.3zm-5.6-5.4q-0.6 0.7-0.6 1.9v1.8q0 0.1 0.1 0.1h4.4q0.1 0 0.1-0.1v-1.8q0-1.1-0.7-1.9-0.6-0.7-1.6-0.7-1.1 0-1.7 0.7zm0.5-4q-0.1-0.1 0-0.2l1.7-3q0.1-0.1 0.3-0.1h1.1q0.2 0 0.2 0 0 0.1-0.1 0.3l-1.8 2.9q-0.2 0.2-0.4 0.2h-0.8q-0.2 0-0.2-0.1z"/>
		<path class="s0" d="m167.7 412.1q1.1 1.2 1.1 3.2v9.1q0 0.2-0.2 0.2h-1.4q-0.3 0-0.3-0.2v-0.8-0.1q-0.1 0-0.1 0-1 1.4-3 1.4-1.5 0-2.6-0.9-1.1-0.8-1-3 0-2.3 1.3-3.3 1.3-1.1 3.4-1.1h1.9q0.1 0 0.1-0.1v-1q0-1.4-0.6-2.2-0.6-0.8-1.7-0.8-0.8 0-1.3 0.5-0.6 0.6-0.7 1.4 0 0.3-0.3 0.3h-1.5q-0.1-0.1-0.2-0.1-0.1-0.1 0-0.2 0.1-1.6 1.3-2.6 1.1-1 2.8-1 1.9 0 3 1.3zm-6-3.1q-0.1-0.1 0-0.2l1.7-2.8q0.2-0.1 0.4-0.1h1.6q0.2-0.1 0.3 0.1l1.8 2.8q0 0.1 0 0.2 0 0.1-0.2 0.1h-1.2q-0.1 0-0.3-0.2l-1.1-1.9-0.1-0.1q-0.1 0-0.1 0.1l-1.2 1.9q-0.1 0.2-0.3 0.2h-1.2q-0.1 0-0.2-0.1zm4.5 13.5q0.8-0.7 0.8-2v-2.2q0-0.2-0.1-0.2h-1.9q-1.3 0-2 0.7-0.8 0.7-0.8 2.1 0 1.1 0.6 1.7 0.6 0.6 1.5 0.6 1.1 0 1.9-0.7z"/>
		<path class="s0" d="m176.3 412.5h-2.1q-0.1 0-0.1 0.1v8.2q0 1.3 0.4 1.7 0.5 0.5 1.3 0.5h0.3q0.3 0 0.3 0.2v1.2q0 0.3-0.3 0.3h-0.7q-1.5 0-2.4-0.7-0.8-0.7-0.8-2.6v-8.8q0-0.1-0.1-0.1h-1q-0.3 0-0.3-0.3v-0.8q0-0.3 0.3-0.3h1q0.1 0 0.1-0.1v-3q0-0.3 0.3-0.3h1.3q0.3 0 0.3 0.3v3q0 0.1 0.1 0.1h2.1q0.2 0 0.2 0.3v0.8q0 0.3-0.2 0.3z"/>
		<path class="s0" d="m184.6 411.2q0.2 0.1 0.2 0.4l-0.3 1.4q-0.1 0.2-0.4 0.1-0.3-0.1-0.8-0.1-0.2 0-0.3 0-1 0.1-1.6 1-0.6 1-0.6 2.3v8.1q0 0.3-0.3 0.3h-1.3q-0.3 0-0.3-0.3v-13.1q0-0.2 0.3-0.2h1.3q0.3 0 0.3 0.2v1.7q0 0 0.1 0 0.8-2.1 2.6-2.1 0.7 0 1.1 0.3z"/>
		<path class="s0" d="m193.7 412.1q1.1 1.2 1.1 3.2v9.1q0 0.2-0.3 0.2h-1.3q-0.3 0-0.3-0.2v-0.8-0.1q-0.1 0-0.1 0-1 1.4-3 1.4-1.5 0-2.6-0.9-1.1-0.8-1.1-3 0-2.3 1.4-3.3 1.3-1.1 3.4-1.1h1.9q0.1 0 0.1-0.1v-1q0-1.4-0.6-2.2-0.6-0.8-1.7-0.8-0.8 0-1.4 0.5-0.5 0.6-0.6 1.4 0 0.3-0.3 0.3h-1.5q-0.1-0.1-0.2-0.1-0.1-0.1 0-0.2 0.1-1.6 1.2-2.6 1.2-1 2.9-1 1.9 0 3 1.3zm-1.6 10.4q0.8-0.7 0.8-2v-2.2q0-0.2-0.1-0.2h-1.9q-1.3 0-2.1 0.7-0.7 0.7-0.7 2.1 0 1.1 0.6 1.7 0.6 0.6 1.5 0.6 1.1 0 1.9-0.7z"/>
		<path class="s0" d="m197.6 424.4v-18.3q0-0.2 0.3-0.2h1.4q0.2 0 0.2 0.2v18.3q0 0.3-0.2 0.3h-1.4q-0.3 0-0.3-0.3z"/>
		<path class="s0" d="m209.1 423.6q-1.2-1.2-1.2-3.2v-10.3q0-2 1.2-3.2 1.2-1.2 3.3-1.2 2.1 0 3.3 1.2 1.3 1.2 1.3 3.3v1.1q0 0.3-0.3 0.3h-1.4q-0.2 0-0.2-0.3v-1.2q0-1.2-0.8-2-0.7-0.8-1.9-0.8-1.2 0-1.9 0.8-0.8 0.8-0.8 2v10.3q0 1.2 0.8 2 0.7 0.8 1.9 0.8 1.2 0 1.9-0.8 0.7-0.7 0.8-2v-3.4q-0.1-0.1-0.2-0.1h-2.3q-0.2 0-0.2-0.3v-1.1q0-0.3 0.2-0.3h4.1q0.3 0 0.3 0.3v4.9q0 2-1.3 3.2-1.3 1.2-3.3 1.2-2.1 0.1-3.3-1.2z"/>
		<path class="s0" d="m225.8 411.2q0.2 0.1 0.2 0.4l-0.4 1.4q0 0.2-0.3 0.1-0.3-0.1-0.8-0.1-0.2 0-0.3 0-1 0.1-1.6 1-0.6 1-0.6 2.3v8.1q0 0.3-0.3 0.3h-1.3q-0.3 0-0.3-0.3v-13.1q0-0.2 0.3-0.2h1.3q0.3 0 0.3 0.2v1.7q0.1 0 0.1 0 0.8-2.1 2.6-2.1 0.7 0 1.1 0.3z"/>
		<path class="s0" d="m234.4 411.1h1.4q0.3 0 0.3 0.2v13.1q0 0.2-0.3 0.2h-1.4q-0.3 0-0.3-0.2v-0.9q0-0.1 0-0.1 0 0-0.1 0-0.8 1.4-2.7 1.4-1.6 0-2.5-0.9-1-1-1-3v-9.6q0-0.2 0.3-0.2h1.4q0.2 0 0.2 0.2v9.2q0 1.3 0.6 2 0.5 0.7 1.6 0.7 1 0 1.7-0.8 0.6-0.8 0.6-2.1v-9q0-0.2 0.2-0.2z"/>
		<path class="s0" d="m238.8 429.9q-0.1 0-0.1-0.1v-1.1q0-0.3 0.3-0.3 0.8 0 1.3-0.3 0.4-0.3 0.7-1.1 0.3-0.7 0.6-2.3 0 0 0-0.1l-3.4-13.2v-0.1q0-0.2 0.2-0.2h1.5q0.3 0 0.3 0.2l2.4 10.6q0 0 0 0.1 0-0.1 0.1-0.1l2.3-10.6q0.1-0.2 0.3-0.2h1.5q0.1 0 0.2 0.1 0.1 0.1 0 0.2l-3.7 14.5q-0.5 1.7-1 2.6-0.4 0.9-1.2 1.2-0.7 0.3-2.1 0.3h-0.1c0 0-0.1 0-0.2 0z"/>
		<path class="s0" d="m256.8 418.6h-6.1q-0.1 0-0.1 0.1v2q0 1.1 0.6 1.8 0.7 0.7 1.7 0.7 0.8 0 1.4-0.5 0.7-0.5 0.8-1.4 0.1-0.2 0.3-0.2h1.4q0.1 0.1 0.2 0.1 0.1 0.1 0 0.2-0.2 1.6-1.3 2.6-1.1 0.9-2.8 0.9-1.9 0-3.1-1.2-1.1-1.1-1.1-2.9v-5.8q0-1.9 1.1-3 1.2-1.1 3.1-1.1 1.9 0 3.1 1.1 1.1 1.2 1.1 3v3.3q0 0.3-0.3 0.3zm-3.4-9.5q0 0.2-0.2 0.2h-0.9q-0.1 0-0.3-0.2l-1.9-2.9q0-0.1 0-0.2 0-0.1 0.2-0.1h1.1q0.2 0 0.4 0.2l1.6 2.9q0.1 0.1 0 0.1zm-2.2 4.1q-0.6 0.7-0.6 1.9v1.8q0 0.1 0.1 0.1h4.4q0.1 0 0.1-0.1v-1.8q0-1.1-0.6-1.9-0.7-0.7-1.7-0.7-1 0-1.7 0.7z"/>
		<path class="s0" d="m265.7 411.2q0.2 0.1 0.1 0.4l-0.3 1.4q0 0.2-0.3 0.1-0.3-0.1-0.8-0.1-0.2 0-0.3 0-1 0.1-1.6 1-0.6 1-0.6 2.3v8.1q0 0.3-0.3 0.3h-1.4q-0.2 0-0.2-0.3v-13.1q0-0.2 0.2-0.2h1.4q0.3 0 0.3 0.2v1.7q0 0 0.1 0 0.8-2.1 2.5-2.1 0.7 0 1.2 0.3z"/>
		<path class="s0" d="m275.5 418.6h-6.1q-0.1 0-0.1 0.1v2q0 1.1 0.6 1.8 0.6 0.7 1.7 0.7 0.8 0 1.4-0.5 0.6-0.5 0.8-1.4 0.1-0.2 0.3-0.2h1.4q0.1 0.1 0.1 0.1 0.1 0.1 0.1 0.2-0.2 1.6-1.3 2.6-1.1 0.9-2.8 0.9-1.9 0-3.1-1.2-1.1-1.1-1.1-2.9v-5.8q0-1.9 1.1-3 1.2-1.1 3.1-1.1 1.9 0 3 1.1 1.2 1.2 1.2 3v3.3q0 0.3-0.3 0.3zm-5.6-5.4q-0.6 0.8-0.6 1.9v1.8q0 0.1 0.1 0.1h4.4q0.1 0 0.1-0.1v-1.8q0-1.1-0.6-1.9-0.7-0.7-1.7-0.7c-0.7 0-1.2 0.3-1.7 0.7z"/>
		<path class="s0" d="m279.1 423.8q-1.1-0.9-1.1-2.5v-0.2q0-0.3 0.3-0.3h1.3q0.2 0 0.2 0.3v0.2q0 0.8 0.7 1.4 0.6 0.6 1.6 0.6 1 0 1.6-0.6 0.6-0.6 0.6-1.5 0-0.7-0.4-1.1-0.4-0.5-0.9-0.8-0.5-0.3-1.5-0.7-1-0.4-1.7-0.8-0.7-0.4-1.2-1.2-0.5-0.8-0.5-1.9 0-1.8 1.1-2.8 1.1-1 2.8-1 1.9 0 2.9 1.1 1.1 1 1.1 2.7 0 0.3-0.3 0.3h-1.2q-0.3 0-0.3-0.3v-0.1q0-0.9-0.6-1.5-0.6-0.6-1.5-0.6-1 0-1.6 0.6-0.5 0.6-0.5 1.5 0 0.6 0.3 1.1 0.4 0.4 0.9 0.7 0.5 0.3 1.4 0.7 1.1 0.5 1.8 0.9 0.7 0.4 1.2 1.2 0.6 0.8 0.6 1.9 0 1.7-1.1 2.7-1.1 1-3 1-1.9 0-3-1z"/>
	</g>
</svg>